<svg xmlns="http://www.w3.org/2000/svg" width="631.438" height="483.451" viewBox="0 0 631.438 483.451">
  <g id="Payment_Information-rafiki" data-name="Payment Information-rafiki" transform="translate(0 -55)">
    <g id="freepik--background-complete--inject-59" transform="translate(0 55)">
      <rect id="Rectangle_1606" data-name="Rectangle 1606" width="10.974" height="0.316" transform="translate(407.315 437.22)" fill="#ebebeb"/>
      <rect id="Rectangle_1607" data-name="Rectangle 1607" width="24.235" height="0.316" transform="translate(500.844 422.065)" fill="#ebebeb"/>
      <rect id="Rectangle_1608" data-name="Rectangle 1608" width="54.544" height="0.316" transform="translate(66.25 424.187)" fill="#ebebeb"/>
      <rect id="Rectangle_1609" data-name="Rectangle 1609" width="7.994" height="0.316" transform="translate(132.046 424.187)" fill="#ebebeb"/>
      <rect id="Rectangle_1610" data-name="Rectangle 1610" width="118.306" height="0.316" transform="translate(166.03 429.516)" fill="#ebebeb"/>
      <path id="Path_5436" data-name="Path 5436" d="M289.257,412.141H45.421a7.211,7.211,0,0,1-7.211-7.211V62.148A7.211,7.211,0,0,1,45.421,55H289.257a7.211,7.211,0,0,1,7.211,7.211V404.93A7.211,7.211,0,0,1,289.257,412.141ZM45.421,55.253a6.908,6.908,0,0,0-6.9,6.9V404.93a6.908,6.908,0,0,0,6.9,6.9H289.257a6.908,6.908,0,0,0,6.9-6.9V62.148a6.908,6.908,0,0,0-6.9-6.9Z" transform="translate(10.044 -55)" fill="#ebebeb"/>
      <path id="Path_5437" data-name="Path 5437" d="M505.572,412.141H261.711a7.224,7.224,0,0,1-7.211-7.211V62.148A7.224,7.224,0,0,1,261.711,55H505.572a7.211,7.211,0,0,1,7.186,7.148V404.93A7.211,7.211,0,0,1,505.572,412.141ZM261.711,55.253a6.908,6.908,0,0,0-6.9,6.9V404.93a6.908,6.908,0,0,0,6.9,6.9H505.572a6.908,6.908,0,0,0,6.9-6.9V62.148a6.908,6.908,0,0,0-6.9-6.9Z" transform="translate(66.902 -55)" fill="#ebebeb"/>
      <rect id="Rectangle_1611" data-name="Rectangle 1611" width="631.438" height="0.316" transform="translate(0 413.465)" fill="#ebebeb"/>
      <rect id="Rectangle_1612" data-name="Rectangle 1612" width="53.988" height="66.452" transform="translate(281.129 177.51) rotate(180)" fill="#f5f5f5"/>
      <rect id="Rectangle_1613" data-name="Rectangle 1613" width="38.568" height="47.471" transform="translate(273.412 168.013) rotate(180)" fill="#ebebeb"/>
      <rect id="Rectangle_1614" data-name="Rectangle 1614" width="53.963" height="38.328" transform="translate(220.826 177.964) rotate(180)" fill="#f5f5f5"/>
      <rect id="Rectangle_1615" data-name="Rectangle 1615" width="45.741" height="30.372" transform="translate(216.722 173.974) rotate(180)" fill="#fafafa"/>
      <rect id="Rectangle_1616" data-name="Rectangle 1616" width="46.701" height="33.176" transform="translate(183.875 182.826)" fill="#f5f5f5"/>
      <rect id="Rectangle_1617" data-name="Rectangle 1617" width="29.728" height="19.739" transform="translate(192.361 189.545)" fill="#fafafa"/>
      <rect id="Rectangle_1618" data-name="Rectangle 1618" width="5.051" height="290.499" transform="translate(92.405 123.257)" fill="#f5f5f5"/>
      <path id="Path_5438" data-name="Path 5438" d="M66.072,126.616a6,6,0,0,0-11.846-1.806Q48,157.43,41.774,190.037c-.594,3.107,2.766,6.314,7.577,7.11s8.929-1.414,9.295-4.559Q62.283,159.589,66.072,126.616Z" transform="translate(10.964 -37.911)" fill="#f5f5f5"/>
      <path id="Path_5439" data-name="Path 5439" d="M74.476,127.255a6,6,0,0,0-11.934-.9q-3.789,32.986-7.476,65.973c-.366,3.145,3.22,6.163,8.019,6.516s8.84-2.071,8.84-5.241Z" transform="translate(14.469 -37.591)" fill="#fafafa"/>
      <path id="Path_5440" data-name="Path 5440" d="M82.916,127.189a5.986,5.986,0,0,0-11.959,0L68.431,193.54c-.114,3.17,3.675,5.9,8.487,5.9s8.588-2.728,8.474-5.9Z" transform="translate(17.988 -37.525)" fill="#f5f5f5"/>
      <path id="Path_5441" data-name="Path 5441" d="M91.834,126.308a6,6,0,0,0-11.934.9l2.526,66.351c.114,3.17,4.1,5.607,8.9,5.241s8.373-3.372,8.019-6.516Q95.572,159.307,91.834,126.308Z" transform="translate(21.004 -37.604)" fill="#fafafa"/>
      <path id="Path_5442" data-name="Path 5442" d="M101.213,124.79A6.011,6.011,0,0,0,89.354,126.6q3.789,32.986,7.489,65.973c.354,3.145,4.521,5.279,9.282,4.559s8.12-4,7.577-7.11Q107.426,157.4,101.213,124.79Z" transform="translate(23.483 -37.891)" fill="#f5f5f5"/>
      <path id="Path_5443" data-name="Path 5443" d="M119.982,384.523c.139-3.9-2.3-7.893-7.312-7.893H53.1c-5.051,0-7.438,3.991-7.3,7.893Z" transform="translate(12.038 29.549)" fill="#ebebeb"/>
      <path id="Path_5444" data-name="Path 5444" d="M408.469,330.217c-.695-1.263.366-2.829-.328-4.041s-2.526-1.061-3.334-2.324c-1.061-1.7.48-3.283-.505-4.976-.594-1.023-2.248-.455-2.98-1.465s.417-2.526-.379-3.549-2.021-.581-2.892-1.629c-1.174-1.44.164-4.635.164-4.635s3.41-.846,4.66.682c.909,1.124.2,2.248,1.023,3.309s2.526.316,3.4,1.49-.29,2.463.48,3.422c1.263,1.591,3.347.833,4.508,2.69.846,1.377-.139,2.968.594,4.243s2.614,1.263,3.372,2.652-.114,2.639.467,3.789,2.134,1.4,2.715,2.7-.442,2.829.1,4.142,2.3,1.566,2.841,3.018-.783,2.955-.354,4.433c.341,1.187,1.882,1.528,2.261,2.816a4.142,4.142,0,0,1-2.614,5.342,4.218,4.218,0,0,1-4.913-3.119c-.366-1.2.72-2.311.316-3.41-.518-1.377-2.412-1.553-2.955-3.006s.644-2.665.139-3.915-2.261-1.389-2.841-2.69.3-2.526-.24-3.612S409.088,331.366,408.469,330.217Z" transform="translate(104.511 11.34)" fill="#f0f0f0"/>
      <path id="Path_5445" data-name="Path 5445" d="M415.823,341.6c.8.316,1.579.644,2.362.985q-1.263-3.637-2.8-7.161h0q-1.389-3.17-2.955-6.239c-.935-.253-1.856-.505-2.791-.732-.227,0-.126-.4.1-.341.821.189,1.642.4,2.526.631-1.01-1.957-2.071-3.877-3.208-5.759h0q-1.907-3.2-4.054-6.314h0c-.631-.909-1.263-1.806-1.945-2.7q-1.7-2.286-3.536-4.483c-.152-.189.126-.429.278-.24,1.856,2.235,3.612,4.546,5.279,6.908.189-.833.354-1.68.518-2.526a.189.189,0,0,1,.366.076c-.189.96-.379,1.92-.594,2.867,1.339,1.932,2.627,3.9,3.789,5.923.24-.821.467-1.654.695-2.526a.182.182,0,0,1,.354.088c-.253.947-.518,1.882-.783,2.816,1.174,1.983,2.3,4,3.347,6.062h0c1.01,1.97,1.957,3.953,2.841,5.973.341-.783.682-1.566,1-2.362a.19.19,0,1,1,.354.139c-.379.909-.758,1.806-1.149,2.69,1.061,2.45,2.021,4.95,2.9,7.476l.227.644c.606,1.806,1.174,3.624,1.692,5.468a.178.178,0,1,1-.341.1c-.581-2.033-1.2-4.041-1.894-6.037-.884-.379-1.781-.758-2.665-1.111A.166.166,0,1,1,415.823,341.6Z" transform="translate(105.012 11.816)" fill="#fff"/>
      <path id="Path_5446" data-name="Path 5446" d="M411.886,319.234c-.758-2.374,1.427-4.559.631-6.769s-3.89-2.463-4.824-4.774c-1.263-3.132,1.743-5.291.619-8.36-.682-1.856-3.574-1.4-4.5-3.283s1.414-4.041.417-5.961-3.182-1.541-4.306-3.536c-1.515-2.715,1.616-7.577,1.616-7.577s5.86-.4,7.476,2.526c1.187,2.109-.3,3.789.732,5.733s4.1,1.263,5.165,3.448-1.187,3.991-.2,5.8c1.616,2.98,5.279,2.349,6.643,5.746,1.023,2.526-1.073,4.849-.227,7.173s3.953,2.778,4.774,5.342c.745,2.261-.947,4.319-.341,6.415s3.132,2.942,3.713,5.254c.644,2.526-1.553,4.534-1.048,6.857s3.334,3.246,3.789,5.809c.505,2.766-2.134,4.635-1.869,7.2.215,2.059,2.665,3.056,2.917,5.3.467,4.155-2.235,7.779-5.847,8.044a7.06,7.06,0,0,1-7.211-6.567c-.24-2.084,1.869-3.6,1.5-5.531-.455-2.412-3.523-3.258-3.991-5.809s1.844-4.218,1.364-6.415-3.309-2.943-3.9-5.266c-.543-2.122,1.263-4.041.657-6.011S412.568,321.318,411.886,319.234Z" transform="translate(105.022 3.872)" fill="#f5f5f5"/>
      <path id="Path_5447" data-name="Path 5447" d="M420.523,340.321c1.263.745,2.412,1.515,3.612,2.3q-1.061-6.314-2.526-12.629a.176.176,0,0,1,0-.088c-.9-3.789-1.92-7.464-3.044-11.151-1.465-.695-2.942-1.364-4.407-2.008-.354-.164-.088-.707.265-.556,1.263.568,2.6,1.162,3.89,1.768q-1.654-5.266-3.612-10.419v-.088q-2.235-5.834-4.875-11.543v-.076c-.77-1.68-1.579-3.359-2.425-5.052q-2.134-4.281-4.509-8.436a.3.3,0,1,1,.518-.3q3.624,6.314,6.693,12.919.808-1.983,1.591-4.016a.316.316,0,0,1,.581.227c-.594,1.528-1.187,3.044-1.819,4.546,1.667,3.587,3.2,7.211,4.622,10.886.631-1.263,1.263-2.526,1.856-3.89a.316.316,0,0,1,.568.265c-.695,1.49-1.4,2.955-2.134,4.407,1.377,3.612,2.639,7.274,3.789,10.962v.088q1.566,5.279,2.829,10.722c.8-1.187,1.579-2.4,2.349-3.612.215-.341.745,0,.53.328-.871,1.389-1.768,2.753-2.677,4.1,1.036,4.344,1.907,8.752,2.627,13.172a.255.255,0,0,1,0,.088c.063.379.114.745.177,1.111.48,3.17.884,6.314,1.263,9.535a.3.3,0,0,1-.606,0q-.53-5.266-1.364-10.494c-1.351-.9-2.7-1.768-4.079-2.614C419.854,340.624,420.2,340.132,420.523,340.321Z" transform="translate(105.893 4.633)" fill="#fff"/>
      <path id="Path_5448" data-name="Path 5448" d="M435.7,317.725c.341-2.526-2.2-4.231-1.793-6.542s3.41-3.107,3.928-5.544c.695-3.309-2.627-4.913-2.046-8.133.354-1.945,3.271-2.008,3.852-4.016s-2.1-3.789-1.44-5.8,2.867-2.071,3.624-4.218c1.036-2.942-2.9-7.186-2.9-7.186s-5.834.606-6.933,3.725c-.8,2.286.96,3.65.278,5.784s-3.789,1.957-4.5,4.281,1.856,3.789,1.263,5.67c-1.073,3.22-4.786,3.233-5.557,6.82-.556,2.639,1.907,4.584,1.478,7.022s-3.41,3.41-3.789,6.087c-.328,2.362,1.692,4.092,1.452,6.314s-2.526,3.435-2.753,5.809c-.189,2.526,2.324,4.193,2.223,6.567s-2.728,3.789-2.74,6.39c0,2.816,2.9,4.193,3.081,6.769.151,2.059-2.084,3.46-1.945,5.721.253,4.18,3.536,7.274,7.148,6.908a7.059,7.059,0,0,0,5.973-7.7c-.126-2.1-2.526-3.233-2.45-5.19,0-2.463,2.917-3.789,2.93-6.415,0-2.4-2.526-3.789-2.526-6.087s2.766-3.473,2.943-5.86c.164-2.185-1.907-3.789-1.692-5.809S435.4,319.9,435.7,317.725Z" transform="translate(110.237 3.172)" fill="#f0f0f0"/>
      <path id="Path_5449" data-name="Path 5449" d="M429.32,340.058c-1.048.935-2.109,1.907-3.145,2.879,0-4.294.063-8.575.316-12.856a.214.214,0,0,0,0-.088c.227-3.852.594-7.691,1.073-11.517,1.263-.935,2.639-1.844,3.978-2.74.328-.215,0-.707-.354-.493-1.187.783-2.362,1.591-3.523,2.412.48-3.65,1.061-7.287,1.755-10.886a.278.278,0,0,0,0-.1c.8-4.092,1.73-8.171,2.8-12.2a.311.311,0,0,0,0-.088c.48-1.793.985-3.587,1.528-5.367q1.364-4.584,2.993-9.093a.3.3,0,1,0-.568-.2q-2.463,6.857-4.37,13.892c-.758-1.263-1.515-2.437-2.248-3.675a.316.316,0,0,0-.53.328c.834,1.4,1.692,2.791,2.526,4.167-1.01,3.789-1.894,7.653-2.665,11.517-.846-1.162-1.68-2.324-2.526-3.511a.308.308,0,1,0-.505.354c.935,1.351,1.882,2.677,2.854,3.978q-1.1,5.7-1.831,11.454v.088c-.455,3.662-.808,7.325-1.048,11.012-.985-1.036-1.97-2.084-2.93-3.157a.317.317,0,0,0-.467.429c1.1,1.263,2.223,2.4,3.347,3.574-.265,4.458-.366,8.941-.3,13.424a.139.139,0,0,0,0,.1v1.124q.114,4.8.455,9.585a.3.3,0,0,0,.606,0q-.391-5.279-.467-10.57c1.174-1.124,2.362-2.223,3.561-3.284C430.04,340.235,429.611,339.793,429.32,340.058Z" transform="translate(111.026 4.012)" fill="#fff"/>
      <path id="Path_5450" data-name="Path 5450" d="M446.258,327.23c1.1-1.629-.088-3.789,1.01-5.254s3.486-1.023,4.7-2.526c1.642-2.1-.164-4.382,1.364-6.453.922-1.263,3.006-.29,4.117-1.515s-.189-3.372.985-4.609,2.753-.467,4.029-1.73c1.755-1.73.442-6.1.442-6.1s-4.344-1.579-6.2.24c-1.364,1.339-.594,2.917-1.819,4.193s-3.385,0-4.66,1.478,0,3.284-1.111,4.433c-1.882,1.907-4.521.631-6.314,2.9-1.263,1.667-.24,3.915-1.389,5.481s-3.6,1.263-4.786,3.006c-1.048,1.553-.227,3.486-1.137,4.938s-3.018,1.541-3.965,3.157.189,3.789-.707,5.43-3.233,1.73-4.155,3.574.606,3.978-.152,5.86c-.619,1.5-2.69,1.73-3.372,3.372a5.456,5.456,0,0,0,2.677,7.375,5.557,5.557,0,0,0,6.9-3.384c.631-1.528-.631-3.145.063-4.534.871-1.73,3.384-1.692,4.294-3.523s-.467-3.6.379-5.165,3.157-1.5,4.1-3.132,0-3.321.821-4.7S445.3,328.657,446.258,327.23Z" transform="translate(111.086 8.986)" fill="#f5f5f5"/>
      <path id="Path_5451" data-name="Path 5451" d="M433.363,341.093c-1.073.3-2.147.619-3.22.96q2.172-4.584,4.673-9v-.063c1.5-2.639,3.081-5.241,4.748-7.779q1.894-.3,3.789-.568c.3,0,.215-.505-.088-.467-1.1.152-2.21.3-3.321.48,1.591-2.412,3.271-4.786,5.052-7.1v-.063c1.983-2.627,4.054-5.178,6.213-7.678.96-1.1,1.945-2.2,2.93-3.271,1.7-1.844,3.473-3.65,5.279-5.405a.241.241,0,0,0-.341-.341q-4.1,4.016-7.893,8.322c-.126-1.124-.227-2.248-.316-3.384a.253.253,0,0,0-.492,0c.1,1.263.227,2.526.366,3.789q-3.056,3.523-5.872,7.236c-.2-1.111-.379-2.235-.556-3.359a.244.244,0,1,0-.48.088q.284,1.894.644,3.789-2.753,3.65-5.266,7.476v.063c-1.591,2.425-3.119,4.913-4.559,7.438q-.505-1.617-.985-3.258c-.088-.29-.568-.164-.48.139.366,1.263.745,2.526,1.137,3.688-1.73,3.081-3.359,6.213-4.875,9.421a.1.1,0,0,0,0,.063l-.379.8c-1.061,2.3-2.058,4.609-2.993,6.958a.24.24,0,1,0,.442.177q1.553-3.89,3.321-7.653c1.263-.379,2.437-.745,3.662-1.086C433.818,341.484,433.666,341.017,433.363,341.093Z" transform="translate(111.997 9.595)" fill="#fff"/>
    </g>
    <g id="freepik--Screen--inject-59" transform="translate(340.56 92.418)">
      <path id="Path_5453" data-name="Path 5453" d="M307.821,293.015,269.67,264.07l45.552-55.68Z" transform="translate(-269.67 -52.096)" fill="#009aff"/>
      <path id="Path_5454" data-name="Path 5454" d="M315.222,208.39l-7.4,84.625L269.67,264.07Z" transform="translate(-269.67 -52.096)" fill="#fff" opacity="0.7"/>
      <path id="Path_5455" data-name="Path 5455" d="M375.709,89.985h19.8c.985,0,1.111-1.515.139-1.515h-19.8C374.863,88.47,374.737,89.985,375.709,89.985Z" transform="translate(-241.971 -83.62)" fill="#009aff"/>
      <path id="Path_5456" data-name="Path 5456" d="M397.14,89.985h5.683c.985,0,1.111-1.515.139-1.515h-5.7C396.294,88.47,396.155,89.985,397.14,89.985Z" transform="translate(-236.338 -83.62)" fill="#009aff"/>
      <g id="Group_12122" data-name="Group 12122" transform="translate(133.07 4.85)" opacity="0.3">
        <path id="Path_5457" data-name="Path 5457" d="M375.709,89.985h19.8c.985,0,1.111-1.515.139-1.515h-19.8C374.863,88.47,374.737,89.985,375.709,89.985Z" transform="translate(-375.041 -88.47)" fill="#fff"/>
      </g>
      <g id="Group_12123" data-name="Group 12123" transform="translate(160.128 4.85)" opacity="0.3">
        <path id="Path_5458" data-name="Path 5458" d="M397.14,89.985h5.683c.985,0,1.111-1.515.139-1.515h-5.7C396.294,88.47,396.155,89.985,397.14,89.985Z" transform="translate(-396.466 -88.47)" fill="#fff"/>
      </g>
      <path id="Path_5459" data-name="Path 5459" d="M459.715,367.653a8.714,8.714,0,0,1-8.487,7.8H295.289a7.047,7.047,0,0,1-7.11-7.8l24.07-275.231a8.714,8.714,0,0,1,8.55-7.792H476.764a7.047,7.047,0,0,1,7.11,7.792Z" transform="translate(-264.815 -84.629)" fill="#009aff"/>
      <path id="Path_5460" data-name="Path 5460" d="M459.715,367.653a8.714,8.714,0,0,1-8.487,7.8H295.289a7.047,7.047,0,0,1-7.11-7.8l24.07-275.231a8.714,8.714,0,0,1,8.55-7.792H476.764a7.047,7.047,0,0,1,7.11,7.792Z" transform="translate(-264.815 -84.629)" fill="#fff" opacity="0.7"/>
      <path id="Path_5461" data-name="Path 5461" d="M459.715,367.653a8.714,8.714,0,0,1-8.487,7.8H295.289a7.047,7.047,0,0,1-7.11-7.8l24.07-275.231a8.714,8.714,0,0,1,8.55-7.792H476.764a7.047,7.047,0,0,1,7.11,7.792Z" transform="translate(-264.815 -84.629)" fill="#009aff"/>
      <path id="Path_5462" data-name="Path 5462" d="M459.715,367.653a8.714,8.714,0,0,1-8.487,7.8H295.289a7.047,7.047,0,0,1-7.11-7.8l24.07-275.231a8.714,8.714,0,0,1,8.55-7.792H476.764a7.047,7.047,0,0,1,7.11,7.792Z" transform="translate(-264.815 -84.629)" fill="#fff" opacity="0.7"/>
      <path id="Path_5463" data-name="Path 5463" d="M445.871,84.63h-3.119a7.047,7.047,0,0,1,7.11,7.792l-24.1,275.231a8.714,8.714,0,0,1-8.487,7.8H420.4a8.714,8.714,0,0,0,8.487-7.8l24.1-275.231a7.047,7.047,0,0,0-7.11-7.792Z" transform="translate(-230.867 -84.629)" fill="#009aff"/>
      <path id="Path_5464" data-name="Path 5464" d="M445.871,84.63h-3.119a7.047,7.047,0,0,1,7.11,7.792l-24.1,275.231a8.714,8.714,0,0,1-8.487,7.8H420.4a8.714,8.714,0,0,0,8.487-7.8l24.1-275.231a7.047,7.047,0,0,0-7.11-7.792Z" transform="translate(-230.867 -84.629)" fill="#fff" opacity="0.4"/>
      <path id="Path_5465" data-name="Path 5465" d="M349.73,260.4c-.77-.265-1.263-.455-1.187-1.023a1.111,1.111,0,0,1,1.263-.96,1.263,1.263,0,0,1,1.263.884v.1l.556-.291v-.076a1.894,1.894,0,0,0-3.624.354c-.088,1.01.745,1.263,1.629,1.591h0c.884.29,1.263.53,1.263,1.086s-.568.985-1.364.985a1.263,1.263,0,0,1-1.452-1.023v-.126l-.556.316v.076a2.1,2.1,0,0,0,4-.24C351.549,261.022,350.652,260.706,349.73,260.4Z" transform="translate(-249.205 -39.096)" fill="#263238"/>
      <path id="Path_5466" data-name="Path 5466" d="M353.588,259.07a1.768,1.768,0,0,0-1.351.581v-.505h-.581l-.366,4.092h.594l.177-2.147a1.4,1.4,0,0,1,1.4-1.452.884.884,0,0,1,.947,1.086l-.215,2.526h.594l.215-2.526a1.376,1.376,0,0,0-1.414-1.654Z" transform="translate(-248.214 -38.774)" fill="#263238"/>
      <path id="Path_5467" data-name="Path 5467" d="M357.282,259.07a2.273,2.273,0,0,0-2.3,2.122,1.869,1.869,0,0,0,1.957,2.134,2.222,2.222,0,0,0,1.856-.922l.063-.088-.493-.3v.088a1.528,1.528,0,0,1-1.326.657,1.351,1.351,0,0,1-1.427-1.263h3.523v-.1a.164.164,0,0,0,0-.076.316.316,0,0,0,0-.1,1.844,1.844,0,0,0-1.856-2.147Zm0,.568a1.263,1.263,0,0,1,1.263,1.263h-2.917a1.629,1.629,0,0,1,1.6-1.263Z" transform="translate(-247.248 -38.773)" fill="#263238"/>
      <path id="Path_5468" data-name="Path 5468" d="M362.647,259.8a1.806,1.806,0,0,0-1.515-.732,2.324,2.324,0,0,0-2.3,2.122,1.882,1.882,0,0,0,1.92,2.134,2.134,2.134,0,0,0,1.642-.745v.657h.594l.354-4.092h-.594Zm-1.806,2.968a1.4,1.4,0,0,1-1.427-1.566,1.717,1.717,0,0,1,1.692-1.553,1.389,1.389,0,0,1,1.414,1.553A1.7,1.7,0,0,1,360.842,262.77Z" transform="translate(-246.236 -38.774)" fill="#263238"/>
      <path id="Path_5469" data-name="Path 5469" d="M366.682,259.453h-.834l-1.983,1.654.278-3.208h-.581l-.492,5.645h.581l.152-1.793,1.755,1.768.025.025h.808l-2.084-2.122Z" transform="translate(-245.117 -39.081)" fill="#263238"/>
      <path id="Path_5470" data-name="Path 5470" d="M368.232,259.07a2.273,2.273,0,0,0-2.3,2.122,1.869,1.869,0,0,0,1.957,2.134,2.248,2.248,0,0,0,1.869-.922v-.088l-.48-.3-.063.088a1.528,1.528,0,0,1-1.263.657,1.351,1.351,0,0,1-1.44-1.263h3.523v-.1a.164.164,0,0,0,0-.076.316.316,0,0,0,0-.1,1.844,1.844,0,0,0-1.806-2.147Zm0,.568A1.263,1.263,0,0,1,369.5,260.9h-2.917a1.629,1.629,0,0,1,1.6-1.263Z" transform="translate(-244.37 -38.773)" fill="#263238"/>
      <path id="Path_5471" data-name="Path 5471" d="M370.747,259.635v-.505h-.581l-.366,4.092h.594l.189-2.261a1.263,1.263,0,0,1,1.326-1.263H372v-.568h-.088A1.528,1.528,0,0,0,370.747,259.635Z" transform="translate(-243.348 -38.758)" fill="#263238"/>
      <path id="Path_5472" data-name="Path 5472" d="M373.591,260.928c-.581-.152-.935-.278-.909-.657s.48-.631.9-.631a.821.821,0,0,1,.859.53v.1l.518-.29v-.076a1.263,1.263,0,0,0-1.339-.833,1.427,1.427,0,0,0-1.553,1.174c-.076.821.644,1.01,1.263,1.187s.96.278.922.669-.543.631-.96.631a1,1,0,0,1-1-.619V262l-.53.3v.076a1.4,1.4,0,0,0,1.49.922,1.452,1.452,0,0,0,1.591-1.2C374.955,261.282,374.235,261.092,373.591,260.928Z" transform="translate(-242.833 -38.775)" fill="#263238"/>
      <path id="Path_5473" data-name="Path 5473" d="M351.456,276.368l-.088,1.1h-.821l.1-1.086a2.816,2.816,0,0,1-2.728-2.021l1.806-1a1.4,1.4,0,0,0,1.1,1.048l.152-1.717-.164-.063c-1.048-.442-2.286-1.048-2.147-2.728a2.854,2.854,0,0,1,2.778-2.526l.088-1.086h.871l-.088,1.111a2.639,2.639,0,0,1,2.3,1.806l-1.768.985a1.086,1.086,0,0,0-.707-.808l-.152,1.68c1.048.467,2.526.871,2.324,2.7A2.917,2.917,0,0,1,351.456,276.368Zm-.366-5.771.114-1.263a.707.707,0,0,0-.606.619c-.051.2.076.4.493.644Zm1.162,3.145c0-.316-.139-.505-.505-.695l-.114,1.339a.745.745,0,0,0,.619-.644Z" transform="translate(-249.1 -36.875)" fill="#263238"/>
      <path id="Path_5474" data-name="Path 5474" d="M360.662,267.23l-.758,8.739h-2l.581-6.63-1.591.429-.328-1.7,2.349-.833Z" transform="translate(-246.826 -36.628)" fill="#263238"/>
      <path id="Path_5475" data-name="Path 5475" d="M360.5,274.555l3.2-3.056a2.665,2.665,0,0,0,1.023-1.541.783.783,0,0,0-.846-.922,1.566,1.566,0,0,0-1.377.947L360.9,269a3.435,3.435,0,0,1,3.107-1.907,2.526,2.526,0,0,1,2.715,2.778,4.332,4.332,0,0,1-1.6,2.74l-1.566,1.465h2.93l-.177,1.92H360.37Z" transform="translate(-245.827 -36.667)" fill="#263238"/>
      <path id="Path_5476" data-name="Path 5476" d="M366.306,271.634c.24-2.69,1.7-4.534,3.953-4.534s3.4,1.844,3.17,4.534-1.7,4.546-3.965,4.546S366.079,274.336,366.306,271.634Zm5.115,0c.152-1.68-.278-2.589-1.326-2.589s-1.642.909-1.793,2.589.29,2.6,1.339,2.6,1.642-.947,1.781-2.6Z" transform="translate(-244.274 -36.662)" fill="#263238"/>
      <path id="Path_5489" data-name="Path 5489" d="M459.424,150.6a8.689,8.689,0,0,1-8.474,7.8H319.888a7.047,7.047,0,0,1-7.11-7.8l.707-8.045a8.689,8.689,0,0,1,8.474-7.792H453.021a7.047,7.047,0,0,1,7.11,7.792Z" transform="translate(-258.349 -71.451)" fill="#fff"/>
      <path id="Path_5490" data-name="Path 5490" d="M456.076,189.077a8.714,8.714,0,0,1-8.487,7.8h-131.1a7.059,7.059,0,0,1-7.123-7.8l.707-8.045a8.714,8.714,0,0,1,8.487-7.792h131.1a7.047,7.047,0,0,1,7.11,7.792Z" transform="translate(-259.245 -61.336)" fill="#fff"/>
      <path id="Path_5491" data-name="Path 5491" d="M453.3,220.549a8.689,8.689,0,0,1-8.474,7.792H313.781a7.047,7.047,0,0,1-7.123-7.792l.707-8.045a8.714,8.714,0,0,1,8.474-7.8H446.9a7.047,7.047,0,0,1,7.11,7.8Z" transform="translate(-259.957 -53.066)" fill="#fff"/>
      <path id="Path_5492" data-name="Path 5492" d="M315.83,128.065h2.993l.063-.669h-2.993l.2-2.349h3.233l.051-.657h-3.915l-.594,6.744h3.965l.063-.669h-3.271Z" transform="translate(-257.788 -74.177)" fill="#263238"/>
      <path id="Path_5493" data-name="Path 5493" d="M324.362,125.791a2,2,0,0,0-1.629.834,1.44,1.44,0,0,0-1.4-.834,1.932,1.932,0,0,0-1.465.669v-.568h-.657l-.429,4.875h.657l.24-2.715c.114-1.187.846-1.616,1.5-1.616s1.048.455.985,1.263l-.265,3.069h.657l.24-2.715c.088-1.023.619-1.616,1.44-1.616s1.111.467,1.036,1.263l-.265,3.069h.669l.265-3.069a1.579,1.579,0,0,0-1.579-1.907Z" transform="translate(-256.76 -73.81)" fill="#263238"/>
      <path id="Path_5494" data-name="Path 5494" d="M329.885,126.712a2.109,2.109,0,0,0-1.831-.922,2.778,2.778,0,0,0-2.74,2.526,2.261,2.261,0,0,0,2.3,2.526,2.526,2.526,0,0,0,2-.935l-.076.833h.682l.417-4.875h-.657Zm-2.172,3.511a1.692,1.692,0,0,1-1.73-1.894,2.1,2.1,0,0,1,2.058-1.894,1.68,1.68,0,0,1,1.7,1.894,2.071,2.071,0,0,1-2.033,1.894Z" transform="translate(-255.047 -73.81)" fill="#263238"/>
      <path id="Path_5495" data-name="Path 5495" d="M330.34,130.745h.669l.417-4.875h-.657Z" transform="translate(-253.721 -73.788)" fill="#263238"/>
      <path id="Path_5496" data-name="Path 5496" d="M331.176,124.39a.518.518,0,0,0-.505.467.417.417,0,0,0,.429.467.518.518,0,0,0,.505-.467.429.429,0,0,0-.429-.467Z" transform="translate(-253.635 -74.177)" fill="#263238"/>
      <path id="Path_5497" data-name="Path 5497" d="M332.616,124.17l-.606,7.022h.657l.619-7.022Z" transform="translate(-253.282 -74.235)" fill="#263238"/>
      <path id="Path_5498" data-name="Path 5498" d="M314.547,161.44h-2.324l-.594,6.744h.695l.215-2.526h1.642a2.3,2.3,0,0,0,2.311-2.122,1.869,1.869,0,0,0-1.945-2.1Zm-.316,3.587H312.6l.253-2.93h1.629a1.263,1.263,0,0,1,1.326,1.465,1.566,1.566,0,0,1-1.579,1.465Z" transform="translate(-258.64 -64.438)" fill="#263238"/>
      <path id="Path_5499" data-name="Path 5499" d="M320.415,163.762a2.109,2.109,0,0,0-1.831-.922,2.778,2.778,0,0,0-2.741,2.526,2.261,2.261,0,0,0,2.3,2.526,2.589,2.589,0,0,0,2-.934l-.076.833h.669l.429-4.875h-.669Zm-2.185,3.511a1.692,1.692,0,0,1-1.718-1.894,2.084,2.084,0,0,1,2.046-1.894,1.692,1.692,0,0,1,1.717,1.894,2.071,2.071,0,0,1-2.046,1.894Z" transform="translate(-257.536 -64.07)" fill="#263238"/>
      <path id="Path_5500" data-name="Path 5500" d="M322.827,165.064c-.619-.152-1.149-.29-1.111-.8a1.174,1.174,0,0,1,2.147-.139v.114l.594-.328v-.076a1.553,1.553,0,0,0-1.591-1,1.68,1.68,0,0,0-1.781,1.465c-.088.972.758,1.2,1.515,1.4s1.162.3,1.124.821-.669.783-1.174.783a1.137,1.137,0,0,1-1.263-.758v-.114l-.606.341v.076a1.692,1.692,0,0,0,1.768,1.1,1.718,1.718,0,0,0,1.894-1.427C324.443,165.493,323.61,165.266,322.827,165.064Z" transform="translate(-256.261 -64.071)" fill="#263238"/>
      <path id="Path_5501" data-name="Path 5501" d="M326.395,165.064c-.619-.152-1.149-.29-1.111-.8a1.174,1.174,0,0,1,2.147-.139v.114l.594-.328v-.076a1.578,1.578,0,0,0-1.591-1,1.692,1.692,0,0,0-1.819,1.427c-.088.972.77,1.2,1.515,1.4s1.174.3,1.124.821-.669.783-1.174.783a1.137,1.137,0,0,1-1.263-.758V166.4l-.606.341v.076a1.692,1.692,0,0,0,1.768,1.1,1.717,1.717,0,0,0,1.894-1.427C328.011,165.493,327.152,165.266,326.395,165.064Z" transform="translate(-255.333 -64.071)" fill="#263238"/>
      <path id="Path_5502" data-name="Path 5502" d="M332.5,166.759l-.9-3.839h-.631l-1.566,3.839-.821-3.776-.025-.063h-.695l1.1,4.8.013.076h.657l1.553-3.776.884,3.7.025.076h.657l1.957-4.875h-.695Z" transform="translate(-254.371 -64.049)" fill="#263238"/>
      <path id="Path_5503" data-name="Path 5503" d="M336.321,162.84a2.8,2.8,0,0,0-2.778,2.526,2.273,2.273,0,0,0,2.336,2.526,2.791,2.791,0,0,0,2.766-2.526,2.273,2.273,0,0,0-2.324-2.526Zm-.391,4.433a1.692,1.692,0,0,1-1.717-1.894,2.084,2.084,0,0,1,2.046-1.894,1.692,1.692,0,0,1,1.717,1.894,2.084,2.084,0,0,1-2.046,1.894Z" transform="translate(-252.883 -64.07)" fill="#263238"/>
      <path id="Path_5504" data-name="Path 5504" d="M339.366,163.565l.063-.631h-.669l-.429,4.875H339l.227-2.7a1.579,1.579,0,0,1,1.6-1.591h.1l.063-.644h-.1a1.869,1.869,0,0,0-1.528.695Z" transform="translate(-251.621 -64.062)" fill="#263238"/>
      <path id="Path_5505" data-name="Path 5505" d="M345.355,161.445l-.24,2.715a2.1,2.1,0,0,0-1.831-.947,2.778,2.778,0,0,0-2.74,2.526,2.261,2.261,0,0,0,2.3,2.526,2.526,2.526,0,0,0,2-.947l-.076.846h.669l.581-6.744Zm-2.425,6.2a1.68,1.68,0,0,1-1.717-1.894,2.071,2.071,0,0,1,2.046-1.894,1.692,1.692,0,0,1,1.718,1.894,2.084,2.084,0,0,1-2.046,1.894Z" transform="translate(-251.043 -64.443)" fill="#263238"/>
      <path id="Path_5506" data-name="Path 5506" d="M328.572,215.792a2.362,2.362,0,0,1-2,1.1,2.058,2.058,0,0,1-2.122-2.324,2.526,2.526,0,0,1,2.526-2.324,1.932,1.932,0,0,1,1.793,1.073v.088l.556-.3v-.088a2.526,2.526,0,0,0-2.3-1.364,3.2,3.2,0,0,0-3.2,2.917,2.526,2.526,0,0,0,2.677,2.9,3.069,3.069,0,0,0,2.526-1.377v-.088l-.505-.3Z" transform="translate(-255.439 -51.239)" fill="#263238"/>
      <path id="Path_5507" data-name="Path 5507" d="M332.427,213.635a1.793,1.793,0,0,0-1.515-.745,2.324,2.324,0,0,0-2.3,2.134,1.894,1.894,0,0,0,1.932,2.122,2.2,2.2,0,0,0,1.642-.732l-.063.657h.594l.354-4.092h-.594Zm-1.806,2.943a1.389,1.389,0,0,1-1.414-1.553,1.718,1.718,0,0,1,1.692-1.566,1.389,1.389,0,0,1,1.4,1.566A1.7,1.7,0,0,1,330.621,216.578Z" transform="translate(-254.179 -50.913)" fill="#263238"/>
      <path id="Path_5508" data-name="Path 5508" d="M333.755,213.455v-.493h-.581l-.354,4.092h.581l.2-2.273a1.263,1.263,0,0,1,1.263-1.263h.1v-.568h-.1A1.553,1.553,0,0,0,333.755,213.455Z" transform="translate(-253.069 -50.897)" fill="#263238"/>
      <path id="Path_5509" data-name="Path 5509" d="M338.757,211.72l-.189,2.235a1.756,1.756,0,0,0-1.515-.758,2.324,2.324,0,0,0-2.3,2.134,1.882,1.882,0,0,0,1.919,2.122,2.147,2.147,0,0,0,1.654-.745l-.063.669h.594l.493-5.658Zm-2.008,5.165a1.389,1.389,0,0,1-1.414-1.553,1.718,1.718,0,0,1,1.692-1.566,1.389,1.389,0,0,1,1.414,1.566,1.717,1.717,0,0,1-1.692,1.553Z" transform="translate(-252.565 -51.22)" fill="#263238"/>
      <path id="Path_5510" data-name="Path 5510" d="M324.882,142.281a2,2,0,0,0-1.629.833,1.415,1.415,0,0,0-1.389-.833,1.869,1.869,0,0,0-1.465.669v-.568h-.669l-.429,4.875h.669l.24-2.715c.1-1.2.833-1.616,1.49-1.616s1.061.455.985,1.263l-.265,3.069h.669l.227-2.715c.088-1.023.619-1.616,1.452-1.616s1.1.467,1.036,1.263l-.265,3.069h.657l.265-3.069a1.566,1.566,0,0,0-1.579-1.907Z" transform="translate(-256.624 -69.475)" fill="#263238"/>
      <path id="Path_5511" data-name="Path 5511" d="M327.745,146.366l-1.465-4h-.72l1.768,4.862-.1.2c-.215.417-.682,1.1-1.389,1.036h-.1l-.063.631h.215a2.349,2.349,0,0,0,1.957-1.5l2.526-5.241h-.707Z" transform="translate(-254.978 -69.456)" fill="#263238"/>
      <path id="Path_5512" data-name="Path 5512" d="M332.214,142.28a2.728,2.728,0,0,0-2.74,2.526,2.235,2.235,0,0,0,2.336,2.526,2.614,2.614,0,0,0,2.223-1.111l.063-.076-.556-.354-.063.088a1.844,1.844,0,0,1-1.6.808,1.616,1.616,0,0,1-1.73-1.553h4.218v-.2a.481.481,0,0,0,0-.126,2.2,2.2,0,0,0-2.147-2.526Zm0,.644a1.541,1.541,0,0,1,1.579,1.579h-3.65a1.983,1.983,0,0,1,2.021-1.579Z" transform="translate(-253.954 -69.475)" fill="#263238"/>
      <path id="Path_5513" data-name="Path 5513" d="M339.642,142.281a2,2,0,0,0-1.629.833,1.44,1.44,0,0,0-1.4-.834,1.894,1.894,0,0,0-1.465.669v-.568h-.657l-.429,4.875h.657l.24-2.715c.114-1.2.846-1.616,1.5-1.616s1.048.455.985,1.263l-.265,3.069h.657l.24-2.715c.088-1.023.619-1.616,1.44-1.616s1.111.467,1.036,1.263l-.265,3.069h.669l.265-3.069a1.579,1.579,0,0,0-1.579-1.907Z" transform="translate(-252.743 -69.475)" fill="#263238"/>
      <path id="Path_5514" data-name="Path 5514" d="M345.165,143.192a2.109,2.109,0,0,0-1.831-.922,2.778,2.778,0,0,0-2.74,2.526,2.26,2.26,0,0,0,2.3,2.526,2.589,2.589,0,0,0,2-.935l-.076.833h.669l.429-4.875h-.669ZM342.98,146.7a1.692,1.692,0,0,1-1.718-1.894,2.1,2.1,0,0,1,2.059-1.894,1.68,1.68,0,0,1,1.7,1.894,2.071,2.071,0,0,1-2.046,1.907Z" transform="translate(-251.03 -69.477)" fill="#263238"/>
      <path id="Path_5515" data-name="Path 5515" d="M345.62,147.235h.669l.417-4.875h-.657Z" transform="translate(-249.705 -69.453)" fill="#263238"/>
      <path id="Path_5516" data-name="Path 5516" d="M346.456,140.88a.505.505,0,0,0-.505.455.429.429,0,0,0,.429.48.53.53,0,0,0,.505-.48.417.417,0,0,0-.429-.455Z" transform="translate(-249.619 -69.843)" fill="#263238"/>
      <path id="Path_5517" data-name="Path 5517" d="M347.29,147.682h.657l.619-7.022H347.9Z" transform="translate(-249.266 -69.9)" fill="#263238"/>
      <path id="Path_5518" data-name="Path 5518" d="M352.792,141.531A3.789,3.789,0,0,0,349,145.017a3.157,3.157,0,0,0,3.372,3.473,4.938,4.938,0,0,0,1.68-.253h.076V147.8H354a4.218,4.218,0,0,1-1.579.265A2.753,2.753,0,0,1,349.458,145a3.372,3.372,0,0,1,3.334-3.056,2.526,2.526,0,0,1,2.665,2.867c-.088,1-.467,1.591-1.023,1.591s-.493-.4-.455-.745l.189-2.185h-.644v.328a1.263,1.263,0,0,0-.96-.4,1.755,1.755,0,0,0-1.755,1.6,1.414,1.414,0,0,0,1.465,1.591,1.566,1.566,0,0,0,1.124-.467.9.9,0,0,0,.96.732c.657,0,1.452-.53,1.591-2.046a2.98,2.98,0,0,0-3.157-3.284Zm.556,3.486a1.048,1.048,0,0,1-1.073.96.846.846,0,0,1-.9-.96,1.048,1.048,0,0,1,1.073-.972.846.846,0,0,1,.859.972Z" transform="translate(-248.82 -69.673)" fill="#263238"/>
      <path id="Path_5519" data-name="Path 5519" d="M357.874,142.28a2.7,2.7,0,0,0-2.74,2.526,2.235,2.235,0,0,0,2.336,2.526,2.652,2.652,0,0,0,2.223-1.111v-.076l-.556-.354v.088a1.856,1.856,0,0,1-1.6.808,1.617,1.617,0,0,1-1.73-1.553h4.218v-.1a.24.24,0,0,1,0-.1v-.126a2.2,2.2,0,0,0-2.147-2.526Zm0,.644a1.528,1.528,0,0,1,1.515,1.528h-3.536a1.983,1.983,0,0,1,1.97-1.528Z" transform="translate(-247.209 -69.475)" fill="#263238"/>
      <path id="Path_5520" data-name="Path 5520" d="M365.289,142.281a1.97,1.97,0,0,0-1.617.833,1.452,1.452,0,0,0-1.4-.833,1.869,1.869,0,0,0-1.465.669v-.568h-.669l-.417,4.875h.657l.24-2.715c.1-1.2.834-1.616,1.49-1.616s1.061.455,1,1.263l-.278,3.069h.669l.24-2.715c.088-1.023.606-1.616,1.44-1.616s1.111.467,1.036,1.263l-.265,3.069h.657l.278-3.069a1.579,1.579,0,0,0-1.591-1.907Z" transform="translate(-245.998 -69.475)" fill="#263238"/>
      <path id="Path_5521" data-name="Path 5521" d="M370.825,143.192a2.109,2.109,0,0,0-1.831-.922,2.778,2.778,0,0,0-2.74,2.526,2.261,2.261,0,0,0,2.3,2.526,2.589,2.589,0,0,0,2-.935l-.076.833h.669l.429-4.875H370.9ZM368.64,146.7a1.692,1.692,0,0,1-1.717-1.894,2.084,2.084,0,0,1,2.046-1.894,1.692,1.692,0,0,1,1.717,1.894,2.084,2.084,0,0,1-2.046,1.907Z" transform="translate(-244.285 -69.477)" fill="#263238"/>
      <path id="Path_5522" data-name="Path 5522" d="M372.108,140.88a.53.53,0,0,0-.518.455.429.429,0,0,0,.429.48.53.53,0,0,0,.518-.48.417.417,0,0,0-.429-.455Z" transform="translate(-242.878 -69.843)" fill="#263238"/>
      <path id="Path_5523" data-name="Path 5523" d="M371.28,147.235h.657l.429-4.875h-.657Z" transform="translate(-242.959 -69.453)" fill="#263238"/>
      <path id="Path_5524" data-name="Path 5524" d="M372.94,147.682h.669l.606-7.022h-.657Z" transform="translate(-242.523 -69.9)" fill="#263238"/>
      <path id="Path_5525" data-name="Path 5525" d="M375.117,145.47a.568.568,0,0,0-.556.518.455.455,0,0,0,.467.518.581.581,0,0,0,.568-.518.467.467,0,0,0-.48-.518Z" transform="translate(-242.098 -68.636)" fill="#263238"/>
      <path id="Path_5526" data-name="Path 5526" d="M380.22,145.794a1.97,1.97,0,0,1-1.667.922,1.692,1.692,0,0,1-1.73-1.894,2.058,2.058,0,0,1,2.058-1.894,1.5,1.5,0,0,1,1.49.909v.1l.581-.328v-.076a2.058,2.058,0,0,0-2.021-1.263,2.766,2.766,0,0,0-2.778,2.526,2.261,2.261,0,0,0,2.336,2.526,2.665,2.665,0,0,0,2.273-1.263v-.076l-.53-.328Z" transform="translate(-241.682 -69.478)" fill="#263238"/>
      <path id="Path_5527" data-name="Path 5527" d="M383.231,142.28a2.8,2.8,0,0,0-2.778,2.526,2.273,2.273,0,0,0,2.336,2.526,2.8,2.8,0,0,0,2.766-2.526,2.273,2.273,0,0,0-2.324-2.526Zm-.391,4.433a1.692,1.692,0,0,1-1.717-1.894,2.084,2.084,0,0,1,2.046-1.894,1.692,1.692,0,0,1,1.717,1.894,2.084,2.084,0,0,1-2.046,1.894Z" transform="translate(-240.552 -69.475)" fill="#263238"/>
      <path id="Path_5528" data-name="Path 5528" d="M390.782,142.281a2,2,0,0,0-1.629.833,1.414,1.414,0,0,0-1.389-.833,1.856,1.856,0,0,0-1.465.669v-.568h-.669l-.429,4.875h.669l.24-2.715c.1-1.2.833-1.616,1.49-1.616s1.061.455.985,1.263l-.265,3.069h.657l.24-2.715c.088-1.023.619-1.616,1.452-1.616s1.1.467,1.036,1.263l-.265,3.069h.657l.265-3.069a1.566,1.566,0,0,0-1.579-1.907Z" transform="translate(-239.3 -69.475)" fill="#263238"/>
      <path id="Path_5529" data-name="Path 5529" d="M355.538,213.93h-.606l-.139,1.718H352.57l2.4-3.928H354.3l-2.45,3.978-.051.53h2.93l-.088,1.149h.606l.1-1.149h.695l.051-.581H355.4Z" transform="translate(-248.08 -51.22)" fill="#263238"/>
      <path id="Path_5530" data-name="Path 5530" d="M357.723,213.943H356.8l.253-1.629h2.526v-.594H356.51l-.442,2.879h1.566a1.124,1.124,0,0,1,1.263,1.162,1.263,1.263,0,0,1-1.4,1.174,1.111,1.111,0,0,1-1.2-.846v-.114l-.556.3v.076a1.642,1.642,0,0,0,1.717,1.162,1.97,1.97,0,0,0,2.071-1.755,1.591,1.591,0,0,0-1.806-1.819Z" transform="translate(-247.044 -51.22)" fill="#263238"/>
      <path id="Path_5531" data-name="Path 5531" d="M361.3,213.943h-.922l.253-1.629h2.526v-.594h-3.081l-.442,2.816H361.2c.783,0,1.263.455,1.2,1.162a1.263,1.263,0,0,1-1.4,1.174,1.111,1.111,0,0,1-1.263-.846v-.114l-.556.3v.076a1.642,1.642,0,0,0,1.7,1.162,1.945,1.945,0,0,0,2.071-1.755,1.591,1.591,0,0,0-1.654-1.755Z" transform="translate(-246.14 -51.22)" fill="#263238"/>
      <path id="Path_5532" data-name="Path 5532" d="M364.828,213.943h-.922l.253-1.629h2.526v-.594h-3.069l-.455,2.816h1.566c.8,0,1.263.455,1.2,1.162a1.263,1.263,0,0,1-1.4,1.174,1.111,1.111,0,0,1-1.2-.846v-.114l-.556.3v.076a1.642,1.642,0,0,0,1.717,1.162,1.97,1.97,0,0,0,2.071-1.755,1.591,1.591,0,0,0-1.73-1.755Z" transform="translate(-245.196 -51.22)" fill="#263238"/>
      <path id="Path_5533" data-name="Path 5533" d="M370.661,211.65c-1.263,0-2.235,1.124-2.387,2.917s.556,2.9,1.882,2.9,2.235-1.111,2.4-2.9S371.987,211.65,370.661,211.65Zm-.455,5.241c-.947,0-1.452-.871-1.326-2.324s.783-2.324,1.73-2.324,1.452.871,1.326,2.324-.77,2.324-1.73,2.324Z" transform="translate(-243.755 -51.239)" fill="#263238"/>
      <path id="Path_5534" data-name="Path 5534" d="M374.811,211.65c-1.263,0-2.235,1.124-2.387,2.917s.568,2.9,1.882,2.9,2.235-1.111,2.4-2.9S376.137,211.65,374.811,211.65Zm-.391,5.241c-.947,0-1.44-.871-1.263-2.324s.77-2.324,1.717-2.324,1.452.871,1.326,2.324S375.316,216.891,374.419,216.891Z" transform="translate(-242.664 -51.239)" fill="#263238"/>
      <path id="Path_5535" data-name="Path 5535" d="M378.974,211.65c-1.326,0-2.235,1.124-2.4,2.917s.568,2.9,1.882,2.9,2.235-1.111,2.4-2.9S380.288,211.65,378.974,211.65Zm-.467,5.241c-.947,0-1.44-.871-1.263-2.324s.77-2.324,1.73-2.324,1.44.871,1.263,2.324S379.467,216.891,378.507,216.891Z" transform="translate(-241.573 -51.239)" fill="#263238"/>
      <path id="Path_5536" data-name="Path 5536" d="M383.124,211.65c-1.326,0-2.235,1.124-2.4,2.917s.568,2.9,1.894,2.9,2.235-1.111,2.387-2.9S384.438,211.65,383.124,211.65Zm-.455,5.241c-.96,0-1.452-.871-1.326-2.324s.77-2.324,1.73-2.324,1.44.871,1.263,2.324S383.6,216.891,382.67,216.891Z" transform="translate(-240.482 -51.239)" fill="#263238"/>
      <path id="Path_5537" data-name="Path 5537" d="M389.49,214.473a1.591,1.591,0,0,0,.8-1.263,1.44,1.44,0,0,0-1.591-1.579,1.768,1.768,0,0,0-1.869,1.579,1.263,1.263,0,0,0,.581,1.263,1.692,1.692,0,0,0-.985,1.376c-.088.972.619,1.629,1.768,1.629a1.869,1.869,0,0,0,2.046-1.629,1.377,1.377,0,0,0-.745-1.377Zm-1.263,2.425c-.808,0-1.263-.391-1.2-1.048s.568-1.048,1.377-1.048,1.263.391,1.2,1.048-.556,1.048-1.364,1.048Zm.227-2.69c-.669,0-1.086-.392-1.023-.972a1.1,1.1,0,0,1,1.2-.985c.543,0,1.1.265,1.036.985a1.111,1.111,0,0,1-1.25.972Z" transform="translate(-238.981 -51.246)" fill="#263238"/>
      <path id="Path_5538" data-name="Path 5538" d="M393.18,214.473a1.579,1.579,0,0,0,.783-1.263,1.44,1.44,0,0,0-1.579-1.579,1.768,1.768,0,0,0-1.869,1.579,1.263,1.263,0,0,0,.568,1.263,1.68,1.68,0,0,0-.972,1.376c-.088.972.619,1.629,1.755,1.629a1.869,1.869,0,0,0,2.046-1.629A1.351,1.351,0,0,0,393.18,214.473Zm-1.263,2.425c-.808,0-1.263-.391-1.263-1.048s.581-1.048,1.389-1.048,1.263.391,1.2,1.048S392.726,216.9,391.917,216.9Zm.24-2.69c-.669,0-1.086-.392-1.036-.972a1.1,1.1,0,0,1,1.2-.985c.543,0,1.1.265,1.036.985A1.1,1.1,0,0,1,392.157,214.208Z" transform="translate(-238.011 -51.246)" fill="#263238"/>
      <path id="Path_5539" data-name="Path 5539" d="M396.873,214.473a1.6,1.6,0,0,0,.783-1.263,1.44,1.44,0,0,0-1.591-1.579,1.755,1.755,0,0,0-1.856,1.579,1.263,1.263,0,0,0,.568,1.263,1.692,1.692,0,0,0-.985,1.377c-.088.972.619,1.629,1.768,1.629a1.869,1.869,0,0,0,2.046-1.629A1.389,1.389,0,0,0,396.873,214.473ZM395.61,216.9c-.808,0-1.263-.391-1.263-1.048s.568-1.048,1.377-1.048,1.263.391,1.2,1.048S396.418,216.9,395.61,216.9Zm.24-2.69c-.669,0-1.086-.392-1.036-.972a1.1,1.1,0,0,1,1.2-.985c.543,0,1.1.265,1.036.985a1.111,1.111,0,0,1-1.2.972Z" transform="translate(-237.043 -51.246)" fill="#263238"/>
      <path id="Path_5540" data-name="Path 5540" d="M400.55,214.473a1.629,1.629,0,0,0,.8-1.263,1.44,1.44,0,0,0-1.591-1.579,1.768,1.768,0,0,0-1.869,1.579,1.263,1.263,0,0,0,.568,1.263,1.7,1.7,0,0,0-.972,1.377c-.088.972.619,1.629,1.755,1.629a1.882,1.882,0,0,0,2.058-1.591,1.377,1.377,0,0,0-.745-1.414Zm-1.263,2.425c-.8,0-1.263-.391-1.187-1.048s.568-1.048,1.377-1.048,1.263.391,1.2,1.048S400.1,216.9,399.287,216.9Zm.24-2.69c-.669,0-1.086-.392-1.036-.972a1.1,1.1,0,0,1,1.263-.985c.53,0,1.086.265,1.023.985a1.1,1.1,0,0,1-1.25.972Z" transform="translate(-236.073 -51.246)" fill="#263238"/>
      <path id="Path_5541" data-name="Path 5541" d="M406.461,213.93h-.606l-.152,1.718H403.48l2.412-3.928h-.669l-2.45,3.978-.063.53h2.943l-.1,1.149h.606l.1-1.149h.695l.063-.581h-.707Z" transform="translate(-234.697 -51.22)" fill="#263238"/>
      <path id="Path_5542" data-name="Path 5542" d="M410.321,213.93h-.606l-.152,1.718H407.34l2.412-3.928h-.669l-2.45,3.978-.063.53h2.943l-.1,1.149h.606l.1-1.149h.707l.051-.581h-.707Z" transform="translate(-233.682 -51.22)" fill="#263238"/>
      <path id="Path_5543" data-name="Path 5543" d="M414.178,213.93h-.606l-.152,1.718H411.2l2.412-3.928h-.669l-2.45,3.978-.051.53h2.93l-.1,1.149h.606l.1-1.149h.707l.051-.581h-.707Z" transform="translate(-232.665 -51.22)" fill="#263238"/>
      <path id="Path_5544" data-name="Path 5544" d="M417.887,215.648l.152-1.718h-.606l-.151,1.718h-2.21l2.4-3.928H416.8l-2.45,3.978-.05.53h2.93l-.1,1.149h.606l.114-1.149h.695l.051-.581Z" transform="translate(-231.65 -51.22)" fill="#263238"/>
      <path id="Path_5545" data-name="Path 5545" d="M374.18,229.79a8.714,8.714,0,0,0-8.487,7.8L365,245.639a7.047,7.047,0,0,0,7.11,7.8h54.607a8.714,8.714,0,0,0,8.487-7.8l.707-8.044a7.059,7.059,0,0,0-7.123-7.8Z" transform="translate(-244.621 -46.47)" fill="#fff"/>
      <path id="Path_5546" data-name="Path 5546" d="M375.369,237.625a7.047,7.047,0,0,0-7.11-7.8H313.652a8.714,8.714,0,0,0-8.5,7.8l-.695,8.045a7.047,7.047,0,0,0,7.11,7.8h54.607a8.714,8.714,0,0,0,8.487-7.8Z" transform="translate(-260.536 -46.463)" fill="#fff"/>
      <path id="Path_5547" data-name="Path 5547" d="M308.345,198.757H455a.354.354,0,1,0,0-.707H308.408C307.953,198.05,307.89,198.757,308.345,198.757Z" transform="translate(-259.585 -54.814)" fill="#009aff"/>
      <path id="Path_5548" data-name="Path 5548" d="M303.395,255.315H450.052c.442,0,.505-.695.063-.695H303.458c-.455,0-.518.695-.063.695Z" transform="translate(-260.886 -39.943)" fill="#009aff"/>
      <path id="Path_5549" data-name="Path 5549" d="M301.394,278.147H448.051c.455,0,.505-.707.063-.707H301.457c-.455,0-.505.707-.063.707Z" transform="translate(-261.411 -33.944)" fill="#009aff"/>
      <path id="Path_5550" data-name="Path 5550" d="M322.616,212.436v-.568a.9.9,0,0,0-.909-1h-9.181a1.111,1.111,0,0,0-1.086,1v.568Z" transform="translate(-258.69 -51.444)" fill="#009aff"/>
      <path id="Path_5551" data-name="Path 5551" d="M311.44,213l-.379,4.332a.9.9,0,0,0,.909,1h9.181a1.111,1.111,0,0,0,1.086-1l.379-4.332Z" transform="translate(-258.791 -50.884)" fill="#009aff"/>
      <path id="Path_5552" data-name="Path 5552" d="M321.336,183.1a2.665,2.665,0,0,1-2.6,2.387,2.147,2.147,0,0,1-2.172-2.387,2.652,2.652,0,0,1,2.589-2.387,2.147,2.147,0,0,1,2.185,2.387Z" transform="translate(-257.347 -59.372)" fill="#263238"/>
      <path id="Path_5553" data-name="Path 5553" d="M329.256,183.1a2.652,2.652,0,0,1-2.589,2.387,2.16,2.16,0,0,1-2.185-2.387,2.652,2.652,0,0,1,2.6-2.387,2.147,2.147,0,0,1,2.172,2.387Z" transform="translate(-255.264 -59.372)" fill="#263238"/>
      <path id="Path_5554" data-name="Path 5554" d="M337.189,183.1a2.665,2.665,0,0,1-2.6,2.387A2.16,2.16,0,0,1,332.4,183.1a2.665,2.665,0,0,1,2.6-2.387,2.147,2.147,0,0,1,2.185,2.387Z" transform="translate(-253.182 -59.372)" fill="#263238"/>
      <path id="Path_5555" data-name="Path 5555" d="M345.106,183.1a2.652,2.652,0,0,1-2.589,2.387,2.159,2.159,0,0,1-2.185-2.387,2.652,2.652,0,0,1,2.6-2.387,2.147,2.147,0,0,1,2.172,2.387Z" transform="translate(-251.098 -59.372)" fill="#263238"/>
      <path id="Path_5556" data-name="Path 5556" d="M353,183.1a2.677,2.677,0,0,1-2.6,2.387,2.16,2.16,0,0,1-2.185-2.387,2.665,2.665,0,0,1,2.6-2.387A2.147,2.147,0,0,1,353,183.1Z" transform="translate(-249.026 -59.372)" fill="#263238"/>
      <path id="Path_5557" data-name="Path 5557" d="M361,183.1a2.665,2.665,0,0,1-2.6,2.387,2.16,2.16,0,0,1-2.172-2.387,2.652,2.652,0,0,1,2.6-2.387A2.147,2.147,0,0,1,361,183.1Z" transform="translate(-246.921 -59.372)" fill="#263238"/>
      <path id="Path_5558" data-name="Path 5558" d="M368.889,183.1a2.677,2.677,0,0,1-2.6,2.387A2.159,2.159,0,0,1,364.1,183.1a2.665,2.665,0,0,1,2.6-2.387,2.16,2.16,0,0,1,2.185,2.387Z" transform="translate(-244.849 -59.372)" fill="#263238"/>
      <path id="Path_5559" data-name="Path 5559" d="M314.7,238.174h-2.728l.177-1.97h2.488l.05-.581H312.2l.164-1.932h2.69l.051-.581h-3.3l-.493,5.658h3.334Z" transform="translate(-258.721 -45.598)" fill="#263238"/>
      <path id="Path_5560" data-name="Path 5560" d="M315.13,238.444l1.414-1.642,1.124,1.642h.72l-1.44-2.122,1.7-1.983h-.72l-1.313,1.528-1.01-1.478-.025-.051h-.732l1.377,2-1.819,2.109Z" transform="translate(-257.909 -45.274)" fill="#263238"/>
      <path id="Path_5561" data-name="Path 5561" d="M322.6,236.442a1.894,1.894,0,0,0-1.932-2.122,2.109,2.109,0,0,0-1.642.758l.063-.669h-.594L318,240.054h.581l.2-2.223a1.755,1.755,0,0,0,1.516.745,2.324,2.324,0,0,0,2.3-2.134Zm-2.008-1.553a1.389,1.389,0,0,1,1.427,1.553,1.718,1.718,0,0,1-1.692,1.566,1.4,1.4,0,0,1-1.427-1.566,1.717,1.717,0,0,1,1.692-1.6Z" transform="translate(-256.965 -45.28)" fill="#263238"/>
      <path id="Path_5562" data-name="Path 5562" d="M323.227,234.34h-.594l-.354,4.1h.581Z" transform="translate(-255.84 -45.274)" fill="#263238"/>
      <path id="Path_5563" data-name="Path 5563" d="M322.992,233.11a.467.467,0,0,0-.442.4.366.366,0,0,0,.379.4.455.455,0,0,0,.442-.4.379.379,0,0,0-.379-.4Z" transform="translate(-255.77 -45.598)" fill="#263238"/>
      <path id="Path_5564" data-name="Path 5564" d="M324.506,236.171a1.263,1.263,0,0,1,1.326-1.263h.088v-.568h-.088a1.566,1.566,0,0,0-1.263.556V234.4h-.492l-.366,4.092h.594Z" transform="translate(-255.464 -45.275)" fill="#263238"/>
      <path id="Path_5565" data-name="Path 5565" d="M329.437,235.013a1.793,1.793,0,0,0-1.515-.732,2.324,2.324,0,0,0-2.3,2.122,1.894,1.894,0,0,0,1.932,2.134,2.134,2.134,0,0,0,1.642-.745l-.063.669h.594l.354-4.092h-.594Zm-1.806,2.955a1.389,1.389,0,0,1-1.414-1.566,1.717,1.717,0,0,1,1.692-1.553,1.377,1.377,0,0,1,1.4,1.553,1.7,1.7,0,0,1-1.68,1.566Z" transform="translate(-254.965 -45.29)" fill="#263238"/>
      <path id="Path_5566" data-name="Path 5566" d="M331.323,233.45l-.606.177-.088.96h-.859v.568h.859l-.215,2.437a1.061,1.061,0,0,0,.253.884,1.111,1.111,0,0,0,.8.24,2.865,2.865,0,0,0,.53,0h.088v-.53h-.114a2.741,2.741,0,0,1-.922-.076.632.632,0,0,1-.088-.455l.215-2.437h1.162v-.568h-1.162Z" transform="translate(-253.871 -45.508)" fill="#263238"/>
      <path id="Path_5567" data-name="Path 5567" d="M332.975,233.11a.48.48,0,0,0-.455.4.366.366,0,0,0,.379.4.442.442,0,0,0,.442-.4.366.366,0,0,0-.366-.4Z" transform="translate(-253.149 -45.598)" fill="#263238"/>
      <path id="Path_5568" data-name="Path 5568" d="M332.25,238.444h.594l.354-4.1h-.581Z" transform="translate(-253.219 -45.274)" fill="#263238"/>
      <path id="Path_5569" data-name="Path 5569" d="M335.957,234.28a2.349,2.349,0,0,0-2.324,2.122,1.907,1.907,0,0,0,1.957,2.134,2.349,2.349,0,0,0,2.3-2.084,1.907,1.907,0,0,0-1.932-2.172Zm-.316,3.688a1.389,1.389,0,0,1-1.414-1.515,1.7,1.7,0,0,1,1.692-1.553,1.377,1.377,0,0,1,1.4,1.553,1.7,1.7,0,0,1-1.68,1.515Z" transform="translate(-252.859 -45.29)" fill="#263238"/>
      <path id="Path_5570" data-name="Path 5570" d="M339.907,234.282a1.768,1.768,0,0,0-1.351.581v-.493h-.48l-.366,4.092h.594l.177-2.16a1.4,1.4,0,0,1,1.4-1.452.884.884,0,0,1,.947,1.086l-.215,2.526h.594l.215-2.526a1.377,1.377,0,0,0-1.515-1.654Z" transform="translate(-251.784 -45.292)" fill="#263238"/>
      <path id="Path_5571" data-name="Path 5571" d="M345.822,233.11h-2.147l-.505,5.658h2.147a2.993,2.993,0,0,0,2.917-2.829,2.425,2.425,0,0,0-2.412-2.829Zm-.455,5.051h-1.528l.391-4.483h1.541a1.92,1.92,0,0,1,1.869,2.248,2.349,2.349,0,0,1-2.273,2.248Z" transform="translate(-250.349 -45.598)" fill="#263238"/>
      <path id="Path_5572" data-name="Path 5572" d="M351.577,235.013a1.806,1.806,0,0,0-1.516-.732,2.324,2.324,0,0,0-2.3,2.122,1.882,1.882,0,0,0,1.919,2.134,2.134,2.134,0,0,0,1.642-.745v.669h.53l.354-4.092h-.594Zm-1.806,2.955a1.4,1.4,0,0,1-1.427-1.566,1.718,1.718,0,0,1,1.692-1.553,1.389,1.389,0,0,1,1.414,1.553A1.7,1.7,0,0,1,349.772,237.968Z" transform="translate(-249.146 -45.29)" fill="#263238"/>
      <path id="Path_5573" data-name="Path 5573" d="M355.3,234.35,353.7,237.7l-1.263-3.309h-.631l1.478,4.066-.088.164c-.177.341-.556.909-1.137.859h-.013v.556h.189a1.957,1.957,0,0,0,1.654-1.263l2.122-4.382Z" transform="translate(-248.077 -45.272)" fill="#263238"/>
      <path id="Path_5574" data-name="Path 5574" d="M310.57,241.05l.114.543,1.263-.391-.429,4.976h.606l.493-5.658h-.455Z" transform="translate(-258.918 -43.65)" fill="#263238"/>
      <path id="Path_5575" data-name="Path 5575" d="M315.191,244.025a3.246,3.246,0,0,0,1.263-1.907,1.478,1.478,0,0,0-1.566-1.667,2.071,2.071,0,0,0-1.844,1.073v.076l.493.316v-.1a1.4,1.4,0,0,1,1.263-.77.922.922,0,0,1,1,1.073,2.741,2.741,0,0,1-.972,1.478l-2.185,2.058h0v.518h3.624v-.594h-2.7Z" transform="translate(-258.374 -43.669)" fill="#263238"/>
      <path id="Path_5576" data-name="Path 5576" d="M315.83,247.111h.53l3.827-7.211h-.518Z" transform="translate(-257.536 -43.813)" fill="#263238"/>
      <path id="Path_5577" data-name="Path 5577" d="M321.723,242.806l1.389-1.768v-.518h-3.334v.581H322.3l-1.478,1.856.215.379h.164a1.124,1.124,0,0,1,1.263,1.162,1.263,1.263,0,0,1-1.4,1.162,1.162,1.162,0,0,1-1.263-.77v-.114l-.543.3v.076a1.667,1.667,0,0,0,1.73,1.1,1.945,1.945,0,0,0,2.058-1.755,1.516,1.516,0,0,0-1.326-1.692Z" transform="translate(-256.634 -43.65)" fill="#263238"/>
      <path id="Path_5578" data-name="Path 5578" d="M325.4,240.45c-1.263,0-2.235,1.124-2.4,2.917s.568,2.9,1.894,2.9,2.235-1.111,2.387-2.9S326.793,240.45,325.4,240.45Zm-.455,5.228c-.96,0-1.452-.859-1.326-2.311s.77-2.324,1.73-2.324,1.452.871,1.263,2.324S325.9,245.678,324.95,245.678Z" transform="translate(-255.656 -43.668)" fill="#263238"/>
      <path id="Path_5579" data-name="Path 5579" d="M373.274,238.536a2.223,2.223,0,0,0,1.907-1.036v-.088l-.467-.29-.063.088a1.591,1.591,0,0,1-1.377.758,1.364,1.364,0,0,1-1.414-1.566,1.68,1.68,0,0,1,1.692-1.553,1.263,1.263,0,0,1,1.263.745v.1l.518-.278v-.088a1.73,1.73,0,0,0-1.692-1.048A2.324,2.324,0,0,0,371.3,236.4a1.882,1.882,0,0,0,1.97,2.134Z" transform="translate(-242.958 -45.291)" fill="#263238"/>
      <path id="Path_5580" data-name="Path 5580" d="M376.863,238.444l2.084-4.1h-.631l-1.692,3.347-1.111-3.347h-.631l1.377,4.1Z" transform="translate(-242.013 -45.274)" fill="#263238"/>
      <path id="Path_5581" data-name="Path 5581" d="M382.476,234.34h-.619l-1.7,3.347-1.111-3.347h-.631l1.377,4.1h.606Z" transform="translate(-241.085 -45.274)" fill="#263238"/>
      <path id="Path_5582" data-name="Path 5582" d="M373.174,240.45c-1.263,0-2.235,1.124-2.4,2.917s.568,2.9,1.894,2.9,2.235-1.111,2.387-2.9S374.5,240.45,373.174,240.45Zm-.455,5.228c-.96,0-1.452-.859-1.326-2.311s.77-2.324,1.73-2.324,1.452.871,1.326,2.324-.783,2.311-1.73,2.311Z" transform="translate(-243.098 -43.668)" fill="#263238"/>
      <path id="Path_5583" data-name="Path 5583" d="M377.321,240.45c-1.263,0-2.235,1.124-2.387,2.917s.556,2.9,1.882,2.9,2.235-1.111,2.387-2.9S378.647,240.45,377.321,240.45Zm-.455,5.228c-.96,0-1.452-.859-1.263-2.311s.783-2.324,1.73-2.324,1.452.871,1.326,2.324-.834,2.311-1.793,2.311Z" transform="translate(-242.004 -43.668)" fill="#263238"/>
      <path id="Path_5584" data-name="Path 5584" d="M381.5,240.45c-1.263,0-2.235,1.124-2.387,2.917s.568,2.9,1.882,2.9,2.235-1.111,2.4-2.9S382.764,240.45,381.5,240.45Zm-.455,5.228c-.947,0-1.44-.859-1.263-2.311s.77-2.324,1.717-2.324,1.452.871,1.326,2.324-.859,2.311-1.819,2.311Z" transform="translate(-240.905 -43.668)" fill="#263238"/>
      <path id="Path_5585" data-name="Path 5585" d="M339.179,283.9a8.714,8.714,0,0,0-8.487,7.8L330,299.749a7.047,7.047,0,0,0,7.11,7.792h54.607a8.714,8.714,0,0,0,8.486-7.792l.707-8.044a7.06,7.06,0,0,0-7.123-7.8Z" transform="translate(-253.822 -32.246)" fill="#009aff"/>
      <path id="Path_5586" data-name="Path 5586" d="M345.857,290.631h-2.324l-.594,6.744h.695l.215-2.526h1.692a2.324,2.324,0,0,0,2.324-2.122,1.882,1.882,0,0,0-2.008-2.1Zm-.316,3.574h-1.629l.253-2.917h1.642a1.263,1.263,0,0,1,1.263,1.465,1.553,1.553,0,0,1-1.528,1.452Z" transform="translate(-250.409 -30.478)" fill="#fff"/>
      <path id="Path_5587" data-name="Path 5587" d="M351.725,292.952a2.109,2.109,0,0,0-1.831-.922,2.778,2.778,0,0,0-2.74,2.526,2.261,2.261,0,0,0,2.3,2.526,2.589,2.589,0,0,0,2-.935l-.076.833h.644l.429-4.875h-.669Zm-2.235,3.511a1.692,1.692,0,0,1-1.717-1.894,2.1,2.1,0,0,1,2.058-1.894,1.68,1.68,0,0,1,1.7,1.894A2.071,2.071,0,0,1,349.49,296.463Z" transform="translate(-249.306 -30.109)" fill="#fff"/>
      <path id="Path_5588" data-name="Path 5588" d="M354.2,296.116l-1.478-4H352l1.768,4.862-.114.215c-.2.4-.669,1.1-1.377,1.023h-.114v.631h.215a2.349,2.349,0,0,0,1.957-1.5l2.526-5.241h-.707Z" transform="translate(-248.028 -30.091)" fill="#fff"/>
      <path id="Path_5589" data-name="Path 5589" d="M361.08,293.9l.215-2.463a1.187,1.187,0,0,1,.972.846v.1l.619-.328v-.088a1.831,1.831,0,0,0-1.541-1.263l.076-.846h-.644l-.063.846a2.046,2.046,0,0,0-1.945,1.781c-.088,1.124.644,1.5,1.616,1.869l-.227,2.6a1.376,1.376,0,0,1-1.377-1.023v-.114l-.631.341v.076a2,2,0,0,0,1.97,1.389l-.076.846h.631l.076-.859a2.1,2.1,0,0,0,1.97-1.856C362.823,294.672,362.014,294.255,361.08,293.9Zm.947,1.894a1.263,1.263,0,0,1-1.263,1.174l.2-2.362C361.749,294.874,362.078,295.177,362.027,295.8Zm-2.526-3.271a1.263,1.263,0,0,1,1.187-1.111l-.2,2.261c-.72-.278-1.061-.543-1.01-1.111Z" transform="translate(-246.411 -30.679)" fill="#fff"/>
      <path id="Path_5590" data-name="Path 5590" d="M362.56,291.249l.114.619,1.528-.467-.53,5.973h.695l.594-6.744h-.518Z" transform="translate(-245.252 -30.477)" fill="#fff"/>
      <path id="Path_5591" data-name="Path 5591" d="M367.993,294.794a3.89,3.89,0,0,0,1.452-2.273,1.755,1.755,0,0,0-1.869-1.97,2.526,2.526,0,0,0-2.185,1.263v.088l.556.354v-.1a1.692,1.692,0,0,1,1.553-.935,1.149,1.149,0,0,1,1.263,1.263,3.309,3.309,0,0,1-1.187,1.781l-2.627,2.526h0v.594h4.306V296.7h-3.271Z" transform="translate(-244.623 -30.499)" fill="#fff"/>
      <path id="Path_5592" data-name="Path 5592" d="M372.009,290.55c-1.566,0-2.665,1.326-2.854,3.473s.682,3.473,2.248,3.473,2.665-1.339,2.854-3.473S373.588,290.55,372.009,290.55Zm-.543,6.314c-1.162,0-1.755-1.036-1.6-2.791s.935-2.8,2.1-2.8,1.755,1.048,1.591,2.8-.935,2.74-2.059,2.74Z" transform="translate(-243.525 -30.498)" fill="#fff"/>
    </g>
    <g id="freepik--Sofa--inject-59" transform="translate(78.172 321.467)">
      <path id="Path_5593" data-name="Path 5593" d="M90.88,266h78.652a6.314,6.314,0,0,1,6.074,5.493l12.528,119.228a4.849,4.849,0,0,1-4.913,5.506H104.57Z" transform="translate(-54.282 -266)" fill="#009aff"/>
      <path id="Path_5594" data-name="Path 5594" d="M90.88,266h78.652a6.314,6.314,0,0,1,6.074,5.493l12.528,119.228a4.849,4.849,0,0,1-4.913,5.506H104.57Z" transform="translate(-54.282 -266)" fill="#fff" opacity="0.5"/>
      <path id="Path_5595" data-name="Path 5595" d="M253.919,385.387c-.392-3.789-11-104.718-11.366-108.506a12.351,12.351,0,0,0-12-10.861H162.9a4.862,4.862,0,0,0-4.925,5.494l12.528,119.228a6.314,6.314,0,0,0,6.087,5.506h67.614a9.585,9.585,0,0,0,9.711-10.861Z" transform="translate(-36.654 -265.995)" fill="#009aff"/>
      <path id="Path_5596" data-name="Path 5596" d="M253.919,385.387c-.392-3.789-11-104.718-11.366-108.506a12.351,12.351,0,0,0-12-10.861H162.9a4.862,4.862,0,0,0-4.925,5.494l12.528,119.228a6.314,6.314,0,0,0,6.087,5.506h67.614a9.585,9.585,0,0,0,9.711-10.861Z" transform="translate(-36.654 -265.995)" fill="#fff" opacity="0.5"/>
      <path id="Path_5597" data-name="Path 5597" d="M104.932,276.881a12.364,12.364,0,0,0-12.01-10.861A9.6,9.6,0,0,0,83.2,276.881c.493,4.673,10.911,103.821,11.366,108.506a12.364,12.364,0,0,0,12.01,10.861,9.6,9.6,0,0,0,9.724-10.861C115.931,381.586,105.323,280.67,104.932,276.881Z" transform="translate(-56.323 -265.995)" fill="#009aff"/>
      <path id="Path_5598" data-name="Path 5598" d="M104.932,276.881a12.364,12.364,0,0,0-12.01-10.861A9.6,9.6,0,0,0,83.2,276.881c.493,4.673,10.911,103.821,11.366,108.506a12.364,12.364,0,0,0,12.01,10.861,9.6,9.6,0,0,0,9.724-10.861C115.931,381.586,105.323,280.67,104.932,276.881Z" transform="translate(-56.323 -265.995)" fill="#fff" opacity="0.4"/>
      <path id="Path_5599" data-name="Path 5599" d="M155.916,305.16h-72.4a21.734,21.734,0,0,0,0,43.456v80.647a6.1,6.1,0,0,0,6.1,6.1h81.91a6.112,6.112,0,0,0,6.112-6.1V326.881a21.722,21.722,0,0,0-21.721-21.721Z" transform="translate(-61.794 -255.706)" fill="#009aff"/>
      <path id="Path_5600" data-name="Path 5600" d="M155.916,305.16h-72.4a21.734,21.734,0,0,0,0,43.456v80.647a6.1,6.1,0,0,0,6.1,6.1h81.91a6.112,6.112,0,0,0,6.112-6.1V326.881a21.722,21.722,0,0,0-21.721-21.721Z" transform="translate(-61.794 -255.706)" fill="#fff" opacity="0.3"/>
      <path id="Path_5601" data-name="Path 5601" d="M251.294,305.16h72.4a21.734,21.734,0,0,1,0,43.456v80.647a6.112,6.112,0,0,1-6.112,6.1h-81.91a6.112,6.112,0,0,1-6.112-6.1V326.881A21.734,21.734,0,0,1,251.294,305.16Z" transform="translate(-17.826 -255.706)" fill="#009aff"/>
      <path id="Path_5602" data-name="Path 5602" d="M251.294,305.16h72.4a21.734,21.734,0,0,1,0,43.456v80.647a6.112,6.112,0,0,1-6.112,6.1h-81.91a6.112,6.112,0,0,1-6.112-6.1V326.881A21.734,21.734,0,0,1,251.294,305.16Z" transform="translate(-17.826 -255.706)" fill="#fff" opacity="0.3"/>
      <path id="Path_5603" data-name="Path 5603" d="M140.845,305.16a21.734,21.734,0,0,0,0,43.456v80.647a6.1,6.1,0,0,0,6.1,6.1h9.509a6.112,6.112,0,0,0,6.112-6.1V326.881a21.722,21.722,0,0,0-21.721-21.721Z" transform="translate(-46.723 -255.706)" fill="#009aff"/>
      <path id="Path_5604" data-name="Path 5604" d="M140.845,305.16a21.734,21.734,0,0,0,0,43.456v80.647a6.1,6.1,0,0,0,6.1,6.1h9.509a6.112,6.112,0,0,0,6.112-6.1V326.881a21.722,21.722,0,0,0-21.721-21.721Z" transform="translate(-46.723 -255.706)" fill="#fff" opacity="0.6"/>
      <path id="Path_5605" data-name="Path 5605" d="M308.624,305.16a21.734,21.734,0,0,1,0,43.456v80.647a6.112,6.112,0,0,1-6.112,6.1H293a6.112,6.112,0,0,1-6.112-6.1V326.881A21.734,21.734,0,0,1,308.624,305.16Z" transform="translate(-2.756 -255.706)" fill="#009aff"/>
      <path id="Path_5606" data-name="Path 5606" d="M308.624,305.16a21.734,21.734,0,0,1,0,43.456v80.647a6.112,6.112,0,0,1-6.112,6.1H293a6.112,6.112,0,0,1-6.112-6.1V326.881A21.734,21.734,0,0,1,308.624,305.16Z" transform="translate(-2.756 -255.706)" fill="#fff" opacity="0.6"/>
      <rect id="Rectangle_1619" data-name="Rectangle 1619" width="154.816" height="61.363" rx="6.97" transform="translate(115.844 118.294)" fill="#009aff"/>
      <rect id="Rectangle_1620" data-name="Rectangle 1620" width="154.816" height="61.363" rx="6.97" transform="translate(115.844 118.294)" fill="#fff" opacity="0.4"/>
      <rect id="Rectangle_1621" data-name="Rectangle 1621" width="23.906" height="84.145" rx="6.12" transform="translate(199.989 106.347) rotate(90)" fill="#009aff"/>
      <rect id="Rectangle_1622" data-name="Rectangle 1622" width="23.906" height="84.145" rx="6.12" transform="translate(199.989 106.347) rotate(90)" fill="#fff" opacity="0.6"/>
      <rect id="Rectangle_1623" data-name="Rectangle 1623" width="23.906" height="84.145" rx="6.12" transform="translate(284.134 106.347) rotate(90)" fill="#009aff"/>
      <rect id="Rectangle_1624" data-name="Rectangle 1624" width="23.906" height="84.145" rx="6.12" transform="translate(284.134 106.347) rotate(90)" fill="#fff" opacity="0.6"/>
      <path id="Path_5607" data-name="Path 5607" d="M160.82,302.447c.164,1.6.341,3.22.505,4.837,0,.354.606.354.568,0-.177-1.616-.341-3.233-.505-4.837C161.389,302.081,160.782,302.081,160.82,302.447Z" transform="translate(-35.897 -256.491)" fill="#009aff"/>
      <path id="Path_5608" data-name="Path 5608" d="M158.6,281.4q1.174,11.1,2.336,22.2c0,.354.606.366.568,0q-1.174-11.1-2.336-22.2C159.169,281.031,158.562,281.031,158.6,281.4Z" transform="translate(-36.48 -262.025)" fill="#009aff"/>
      <g id="Group_12124" data-name="Group 12124" transform="translate(124.922 45.681)" opacity="0.3">
        <path id="Path_5609" data-name="Path 5609" d="M160.82,302.447c.164,1.6.341,3.22.505,4.837,0,.354.606.354.568,0-.177-1.616-.341-3.233-.505-4.837C161.389,302.081,160.782,302.081,160.82,302.447Z" transform="translate(-160.819 -302.172)" fill="#fff"/>
      </g>
      <g id="Group_12125" data-name="Group 12125" transform="translate(122.118 19.098)" opacity="0.3">
        <path id="Path_5610" data-name="Path 5610" d="M158.6,281.4q1.174,11.1,2.336,22.2c0,.354.606.366.568,0q-1.174-11.1-2.336-22.2C159.169,281.031,158.562,281.031,158.6,281.4Z" transform="translate(-158.599 -281.122)" fill="#fff"/>
      </g>
      <path id="Path_5611" data-name="Path 5611" d="M220.07,395.14v4.117a.24.24,0,0,0,.48,0V395.14a.24.24,0,0,0-.48,0Z" transform="translate(-20.321 -232.115)" fill="#009aff"/>
      <path id="Path_5612" data-name="Path 5612" d="M220.07,379.18v15.7a.24.24,0,1,0,.48,0v-15.7a.24.24,0,1,0-.48,0Z" transform="translate(-20.321 -236.311)" fill="#009aff"/>
      <g id="Group_12126" data-name="Group 12126" transform="translate(199.749 162.785)" opacity="0.2">
        <path id="Path_5613" data-name="Path 5613" d="M220.07,395.14v4.117a.24.24,0,0,0,.48,0V395.14a.24.24,0,0,0-.48,0Z" transform="translate(-220.07 -394.9)" fill="#fff"/>
      </g>
      <g id="Group_12127" data-name="Group 12127" transform="translate(199.749 142.629)" opacity="0.2">
        <path id="Path_5614" data-name="Path 5614" d="M220.07,379.18v15.7a.24.24,0,1,0,.48,0v-15.7a.24.24,0,1,0-.48,0Z" transform="translate(-220.07 -378.94)" fill="#fff"/>
      </g>
      <path id="Path_5615" data-name="Path 5615" d="M134.3,322.36H61.9a21.734,21.734,0,0,0,21.721,21.734h72.4A21.734,21.734,0,0,1,134.3,322.36Z" transform="translate(-61.9 -251.184)" fill="#009aff"/>
      <g id="Group_12128" data-name="Group 12128" transform="translate(0 71.176)" opacity="0.2">
        <path id="Path_5616" data-name="Path 5616" d="M134.3,322.36H61.9a21.734,21.734,0,0,0,21.721,21.734h72.4A21.734,21.734,0,0,1,134.3,322.36Z" transform="translate(-61.9 -322.36)" fill="#fff"/>
      </g>
    </g>
    <g id="freepik--Character--inject-59" transform="translate(164.282 242.624)">
      <path id="Path_5617" data-name="Path 5617" d="M261.007,266.351l-8.373.278a1.149,1.149,0,0,1-1.263-1.263L252.7,246.65a1.5,1.5,0,0,1,1.4-1.351l8.386-.278a1.149,1.149,0,0,1,1.263,1.263L262.409,265a1.49,1.49,0,0,1-1.4,1.351Z" transform="translate(-98.204 -192.674)" fill="#009aff"/>
      <path id="Path_5618" data-name="Path 5618" d="M262.227,266.311l-8.373.278a1.149,1.149,0,0,1-1.263-1.263l1.339-18.716a1.49,1.49,0,0,1,1.4-1.351l8.373-.278a1.149,1.149,0,0,1,1.263,1.263l-1.339,18.716a1.478,1.478,0,0,1-1.4,1.351Z" transform="translate(-97.884 -192.685)" fill="#009aff"/>
      <path id="Path_5619" data-name="Path 5619" d="M252.957,265.267l1.339-18.716a1.49,1.49,0,0,1,1.4-1.351h-1.579a1.5,1.5,0,0,0-1.4,1.351l-1.326,18.716a1.149,1.149,0,0,0,1.263,1.263h1.566a1.149,1.149,0,0,1-1.263-1.263Z" transform="translate(-98.199 -192.625)" fill="#009aff"/>
      <path id="Path_5620" data-name="Path 5620" d="M252.957,265.267l1.339-18.716a1.49,1.49,0,0,1,1.4-1.351h-1.579a1.5,1.5,0,0,0-1.4,1.351l-1.326,18.716a1.149,1.149,0,0,0,1.263,1.263h1.566a1.149,1.149,0,0,1-1.263-1.263Z" transform="translate(-98.199 -192.625)" fill="#fff" opacity="0.5"/>
      <path id="Path_5621" data-name="Path 5621" d="M256.975,247.151a1.263,1.263,0,0,1-1.263,1.187,1.01,1.01,0,0,1-1.061-1.111,1.263,1.263,0,0,1,1.263-1.187,1.023,1.023,0,0,1,1.061,1.111Z" transform="translate(-97.342 -192.405)" fill="#263238"/>
      <path id="Path_5622" data-name="Path 5622" d="M255.5,417.128l3.776,12.187,11.189-2.071-3.119-13.563Z" transform="translate(-97.117 -148.336)" fill="#fab27b"/>
      <path id="Path_5623" data-name="Path 5623" d="M257.454,423.5l11.416-2.766-.884-3.839-11.416,3.763Z" transform="translate(-96.836 -147.49)" opacity="0.2"/>
      <path id="Path_5624" data-name="Path 5624" d="M269.609,425.368a.3.3,0,0,1-.3-.189.29.29,0,0,1,.076-.341c.164-.164,4.029-3.789,6.314-3.688a1.667,1.667,0,0,1,1.124.493,1.149,1.149,0,0,1,.328,1.263c-.366.808-1.932,1.49-3.523,1.869A22.466,22.466,0,0,1,269.609,425.368Zm.884-.631c2.45-.265,5.67-1.048,6.074-2.021.063-.126.088-.328-.227-.657a.859.859,0,0,0-.682-.278,1.98,1.98,0,0,0-.606.063,14.421,14.421,0,0,0-4.559,2.9Z" transform="translate(-93.495 -146.373)" fill="#009aff"/>
      <path id="Path_5625" data-name="Path 5625" d="M269.471,425.884a.328.328,0,0,1-.2-.24c0-.164-.493-3.7.821-5.418a2.349,2.349,0,0,1,1.566-.922c.859-.114,1.263.253,1.326.594.619,1.377-1.806,4.875-3.17,5.91a.241.241,0,0,1-.126,0,.316.316,0,0,1-.215.076Zm2.122-5.948a1.6,1.6,0,0,0-.96.619,7.349,7.349,0,0,0-.77,4.332c1.364-1.263,2.867-3.965,2.526-4.812,0-.076-.126-.278-.682-.2l-.164.063Z" transform="translate(-93.522 -146.863)" fill="#009aff"/>
      <path id="Path_5626" data-name="Path 5626" d="M271.259,423.353l-13.955,3.3a1.149,1.149,0,0,0-.884,1.137l.152,11.959a1.932,1.932,0,0,0,1.932,1.907,2.093,2.093,0,0,0,.4,0c5.052-1.263,9.421-2.614,15.685-4.079,7.4-1.743,5.733-.417,14.447-2.349,5.254-1.162,4.812-7.35,2.526-7.11-10.457,1.124-12.237-1.7-17.024-4.407A4.572,4.572,0,0,0,271.259,423.353Z" transform="translate(-96.875 -145.835)" fill="#263238"/>
      <path id="Path_5627" data-name="Path 5627" d="M298.44,403.468l5.8,11.353,10.671-3.953-5.393-12.818Z" transform="translate(-85.829 -152.445)" fill="#fab27b"/>
      <path id="Path_5628" data-name="Path 5628" d="M301.441,409.4l10.785-4.673L310.7,401.09l-10.608,5.658Z" transform="translate(-85.396 -151.646)" opacity="0.2"/>
      <path id="Path_5629" data-name="Path 5629" d="M313.741,408.984a.3.3,0,0,1-.328-.139.29.29,0,0,1,0-.354c.139-.189,3.321-4.395,5.569-4.7a1.642,1.642,0,0,1,1.187.278,1.162,1.162,0,0,1,.556,1.263c-.215.859-1.654,1.793-3.157,2.437a23.874,23.874,0,0,1-3.827,1.212Zm.758-.783c2.374-.682,5.405-2.008,5.632-3.031a.679.679,0,0,0-.328-.594.846.846,0,0,0-.732-.164,1.83,1.83,0,0,0-.568.164,14.434,14.434,0,0,0-4,3.624Z" transform="translate(-81.909 -150.94)" fill="#009aff"/>
      <path id="Path_5630" data-name="Path 5630" d="M313.69,409.389a.353.353,0,0,1-.24-.2c0-.164-1.111-3.561-.114-5.481a2.311,2.311,0,0,1,1.376-1.175c.834-.253,1.263,0,1.414.354.833,1.263-.947,5.051-2.122,6.314a.139.139,0,0,1-.114.063A.29.29,0,0,1,313.69,409.389Zm1.073-6.226a1.578,1.578,0,0,0-.834.783,7.212,7.212,0,0,0,0,4.382c1.111-1.528,2.147-4.382,1.717-5.178,0-.063-.177-.253-.707-.076l-.152.088Z" transform="translate(-82.023 -151.294)" fill="#009aff"/>
      <path id="Path_5631" data-name="Path 5631" d="M315,407.1l-13.184,5.632a1.149,1.149,0,0,0-.682,1.263l2.2,11.745a1.932,1.932,0,0,0,2.235,1.553l.379-.114c4.723-2.122,8.84-4.18,14.763-6.706,6.984-2.98,5.569-1.389,13.829-4.786,4.976-2.046,3.486-8.057,1.263-7.438-10.1,2.892-12.351.417-17.529-1.427A4.584,4.584,0,0,0,315,407.1Z" transform="translate(-85.126 -150.188)" fill="#263238"/>
      <path id="Path_5632" data-name="Path 5632" d="M221.383,320.56s64.2-5.8,79.372,8.84,39.288,91.382,39.288,91.382l-17.049,7.577s-26.874-42.71-39.957-74.964c0,0-79.788,11.164-85.446-5.456l2.715-28.819Z" transform="translate(-112.34 -173.194)" fill="#009aff"/>
      <path id="Path_5633" data-name="Path 5633" d="M294.35,406.588l2.576,4.079,19.726-9.4-2.589-5.481Z" transform="translate(-86.905 -153.039)" fill="#009aff"/>
      <path id="Path_5634" data-name="Path 5634" d="M294.35,406.588l2.576,4.079,19.726-9.4-2.589-5.481Z" transform="translate(-86.905 -153.039)" opacity="0.3"/>
      <path id="Path_5635" data-name="Path 5635" d="M177.913,319.191s-4.167,34.325,10.608,39.149,58.837-.379,58.837-.379.088,35.588,26.735,88.136l15.748-5.506s-9.282-88.97-16.645-101.03C267.918,330.948,252.789,318.231,177.913,319.191Z" transform="translate(-117.656 -173.189)" fill="#009aff"/>
      <path id="Path_5636" data-name="Path 5636" d="M251.96,419.382l1.806,4.938,18.867-7-1.427-4.774Z" transform="translate(-98.048 -148.633)" fill="#009aff"/>
      <path id="Path_5637" data-name="Path 5637" d="M251.96,419.382l1.806,4.938,18.867-7-1.427-4.774Z" transform="translate(-98.048 -148.633)" opacity="0.3"/>
      <path id="Path_5638" data-name="Path 5638" d="M270.6,335.131c-11-12.124-59.216-8.588-73.449-8.663v.114c31.648,3.637,64.9.4,70.847,11.176,1.364,2.463,3.018,7.893,4.559,15.154,1.945-.2,2.437-.4,3.915-.581C274.312,343.34,274.741,339.69,270.6,335.131Z" transform="translate(-112.456 -171.373)" opacity="0.1"/>
      <path id="Path_5639" data-name="Path 5639" d="M211.12,254.67s7.981-.278,17.238,22.378l10.393,20.408s14.144-9.585,21.911-21.8c0,0,1.174-21.532,8.777-19.852a9.535,9.535,0,0,1,7.034,13.033,111.545,111.545,0,0,1-7.161,11.555s-18.438,31.761-30.372,32.153-23.7-22.795-23.7-22.795l-3.713-21.9Z" transform="translate(-108.784 -190.136)" fill="#fab27b"/>
      <path id="Path_5640" data-name="Path 5640" d="M213.08,254.447s8.322,1.768,14.826,19.436c0,0,2.437.518,2.261,4.016,0,0,4.054,14.195-7.312,24.727,0,0-2.387.139-3.359-3.789l-5.228-9.08-4.584-21.216-.253-7.754.379-6.807Z" transform="translate(-109.228 -190.317)" fill="#263238"/>
      <path id="Path_5641" data-name="Path 5641" d="M213.08,254.447s8.322,1.768,14.826,19.436c0,0,2.437.518,2.261,4.016,0,0,4.054,14.195-7.312,24.727,0,0-2.387.139-3.359-3.789l-5.228-9.08-4.584-21.216-.253-7.754.379-6.807Z" transform="translate(-109.228 -190.317)" fill="#263238"/>
      <path id="Path_5642" data-name="Path 5642" d="M248.48,273.882a21.62,21.62,0,0,1,6.933,5.3l2.273-2.387s-1.743-3.789-7.906-4.849Z" transform="translate(-98.963 -185.594)" fill="#009aff"/>
      <path id="Path_5643" data-name="Path 5643" d="M248.48,273.882a21.62,21.62,0,0,1,6.933,5.3l2.273-2.387s-1.743-3.789-7.906-4.849Z" transform="translate(-98.963 -185.594)" fill="#fff" opacity="0.7"/>
      <path id="Path_5644" data-name="Path 5644" d="M258.021,278.993c-1.01,1.579-2.778,2.261-3.953,1.515s-1.263-2.639-.278-4.218,2.778-2.273,3.953-1.528S259.019,277.4,258.021,278.993Z" transform="translate(-97.744 -184.933)" fill="#009aff"/>
      <path id="Path_5645" data-name="Path 5645" d="M257.311,278.561a2.046,2.046,0,1,1-.215-3.284A2.387,2.387,0,0,1,257.311,278.561Z" transform="translate(-97.526 -184.804)" fill="#263238"/>
      <path id="Path_5646" data-name="Path 5646" d="M212.27,277.73l1.263,5.746,5.228,9.08c.972,3.965,3.359,3.789,3.359,3.789a24.878,24.878,0,0,0,5.14-6.655C223.295,283.223,216.046,279.334,212.27,277.73Z" transform="translate(-108.481 -184.074)" opacity="0.3"/>
      <path id="Path_5647" data-name="Path 5647" d="M228.454,259.039c-1.7-2.336-5.254-4.837-10.57-6.706l-3.22,8.007-5.153,1.983-4.1-1.137-3.65-1.768-4.142-6.175-.556-3.662a96.488,96.488,0,0,0-15.331,1.7c-26.937,5.051-3.991,89.108-3.991,89.108,43.43,8.461,60.53-3.271,60.53-3.271C232.571,321.349,232.747,264.861,228.454,259.039Z" transform="translate(-119.955 -191.474)" fill="#263238"/>
      <path id="Path_5648" data-name="Path 5648" d="M184.242,260.45l-14.662,5.367a89.108,89.108,0,0,0-.758,18.034C188.675,280.568,184.242,260.45,184.242,260.45Z" transform="translate(-119.944 -188.617)" opacity="0.3"/>
      <path id="Path_5649" data-name="Path 5649" d="M217.374,214.49s4.521,3.41,3.182,6.9c0,0,2.93,7.577-2.943,7.312C217.614,228.7,211.136,223.292,217.374,214.49Z" transform="translate(-107.852 -200.698)" fill="#263238"/>
      <path id="Path_5650" data-name="Path 5650" d="M205.374,264.793l3.662-3.7,2.791-5.051c-.884-.316-1.819-.606-2.816-.871l.846-11.922L195.9,235.09s.442,15.155-2.943,18.2c-.72.644-.682,0-1.68,0l1.642,6.314,5.216,6.491Z" transform="translate(-113.999 -195.283)" fill="#fab27b"/>
      <path id="Path_5651" data-name="Path 5651" d="M192.56,249.26s3.877,9.724,9.939,11.8c0,0-3.044,8.752-7.577,3.9s-5.051-15.609-5.051-15.609Z" transform="translate(-114.37 -191.558)" fill="#009aff"/>
      <path id="Path_5652" data-name="Path 5652" d="M192.56,249.26s3.877,9.724,9.939,11.8c0,0-3.044,8.752-7.577,3.9s-5.051-15.609-5.051-15.609Z" transform="translate(-114.37 -191.558)" fill="#fff" opacity="0.7"/>
      <path id="Path_5653" data-name="Path 5653" d="M198.85,261.064s6.769-1.377,9.472-9.914l3.018,1.263s-1.187,13.4-5.948,13.172a7.767,7.767,0,0,1-6.542-4.521Z" transform="translate(-112.009 -191.061)" fill="#009aff"/>
      <path id="Path_5654" data-name="Path 5654" d="M198.85,261.064s6.769-1.377,9.472-9.914l3.018,1.263s-1.187,13.4-5.948,13.172a7.767,7.767,0,0,1-6.542-4.521Z" transform="translate(-112.009 -191.061)" fill="#fff" opacity="0.7"/>
      <path id="Path_5655" data-name="Path 5655" d="M194.87,236s.3,10.873,13.513,14.624l.429-6.226L194.921,236Z" transform="translate(-113.055 -195.044)" opacity="0.2"/>
      <path id="Path_5656" data-name="Path 5656" d="M224.93,230.642c1.465,12.364-1.894,22.909-12.124,24.134s-18.312-6.719-19.777-19.082,1.743-24.159,11.972-25.371S223.465,218.291,224.93,230.642Z" transform="translate(-113.627 -201.822)" fill="#fab27b"/>
      <path id="Path_5657" data-name="Path 5657" d="M197.653,235.875a22.732,22.732,0,0,0,3.523-11.707s4.054-.48,5.051-2.665c0,0,12.629,5.3,18.236,1,0,0,11.366-3.561,3.182-9.863,0,0,1.629-4.95-5.216-7.3s-10.848-.455-10.848-.455-5.733-3.915-12.187,1.768c0,0-11.366,1.187-9.535,9.042,0,0-6.314,1.856-3.789,7.729a6.378,6.378,0,0,0,.669,8.146s0,9.661,6.239,10.04C192.93,241.608,198.638,251.042,197.653,235.875Z" transform="translate(-115.674 -203.569)" fill="#263238"/>
      <path id="Path_5658" data-name="Path 5658" d="M197.67,229.465c1.452,2.286,1.263,5.051-.341,6.024s-4.142,0-5.595-2.261-1.263-4.988.341-6.024S196.218,227.179,197.67,229.465Z" transform="translate(-114.138 -197.463)" fill="#fab27b"/>
      <path id="Path_5659" data-name="Path 5659" d="M191.505,208.336c.341-.278,0-.859-.354-.581-1.92,1.566-2.955,3.725-2.273,5.683a4.458,4.458,0,0,0-4.458.076c-.354.24,0,.821.366.581a3.675,3.675,0,0,1,3.624-.126c-1.642.152-3.145,1.819-3.978,3.473-.2.391.4.72.594.328.985-1.945,2.98-4.1,4.976-2.614a5.271,5.271,0,0,0,.48.429.344.344,0,1,0,.467-.505,5.276,5.276,0,0,0-.505-.455C188.462,212.617,189.358,210.066,191.505,208.336Z" transform="translate(-115.841 -202.488)" fill="#263238"/>
      <path id="Path_5660" data-name="Path 5660" d="M207.529,229.529c.126.8.669,1.377,1.187,1.263s.834-.77.707-1.566-.669-1.389-1.263-1.263S207.39,228.734,207.529,229.529Z" transform="translate(-109.739 -197.161)" fill="#263238"/>
      <path id="Path_5661" data-name="Path 5661" d="M214.7,229.572c.126.8.657,1.377,1.187,1.263s.834-.77.707-1.579-.669-1.377-1.2-1.263S214.558,228.763,214.7,229.572Z" transform="translate(-107.852 -197.153)" fill="#263238"/>
      <path id="Path_5662" data-name="Path 5662" d="M212.46,229.86a30.562,30.562,0,0,0,4.976,6.314,4.673,4.673,0,0,1-3.7,1.263Z" transform="translate(-108.431 -196.658)" fill="#ed893e"/>
      <path id="Path_5663" data-name="Path 5663" d="M212.233,239.37a6.883,6.883,0,0,1-5.052-2.008.265.265,0,0,1,0-.328.253.253,0,0,1,.341,0h0a6.592,6.592,0,0,0,5.595,1.781.24.24,0,0,1,.3.152.227.227,0,0,1-.152.3h-.088A4.632,4.632,0,0,1,212.233,239.37Z" transform="translate(-109.834 -194.79)" fill="#263238"/>
      <path id="Path_5664" data-name="Path 5664" d="M206.12,226.568a.531.531,0,0,1-.2-.114.467.467,0,0,1,.1-.644h0a4.584,4.584,0,0,1,4.281-.581.455.455,0,0,1,.24.606h0a.467.467,0,0,1-.619.253h0a3.65,3.65,0,0,0-3.334.442.442.442,0,0,1-.467.038Z" transform="translate(-110.174 -197.951)" fill="#263238"/>
      <path id="Path_5665" data-name="Path 5665" d="M218.1,226.36a.618.618,0,0,0,.189-.126.467.467,0,0,0-.177-.644h0a4.6,4.6,0,0,0-4.319-.164.455.455,0,0,0-.189.631h0a.48.48,0,0,0,.631.189h0a3.637,3.637,0,0,1,3.359.126A.492.492,0,0,0,218.1,226.36Z" transform="translate(-108.147 -197.945)" fill="#263238"/>
      <path id="Path_5666" data-name="Path 5666" d="M190.444,252.883s-35.878-3.2-58.837,8.449c0,0-3.7,7.363.442,13.285s18.135,29.665,18.135,29.665l1.932,11.366s-.9,6.769,2.526,9.017,11.947-1.97,12.439-5.632-7.312-18.7-7.312-18.7-8.3-24.235-11.517-29.892c0,0,31.648,3.182,42.748-.215C191.025,270.223,197.2,264.4,190.444,252.883Z" transform="translate(-130.086 -190.711)" fill="#fab27b"/>
      <path id="Path_5667" data-name="Path 5667" d="M182.827,251.824s-10.608-1.124-17.68-.088c0,0-1.263-1.452-4.294.808a39.831,39.831,0,0,1-.253,19.688,6.529,6.529,0,0,0,4.622.3s13.008,3.789,19.133-.366C188.547,269.327,193.182,262.154,182.827,251.824Z" transform="translate(-122.064 -191.028)" fill="#263238"/>
    </g>
  </g>
</svg>
