<svg xmlns="http://www.w3.org/2000/svg" width="181.096" height="51.921" viewBox="0 0 181.096 51.921">
  <g id="Group_12303" data-name="Group 12303" transform="translate(-191.089 -231.737)">
    <g id="Group_12302" data-name="Group 12302" transform="translate(191.089 231.737)">
      <g id="Group_12294" data-name="Group 12294" transform="translate(0 8.94)">
        <path id="Path_9634" data-name="Path 9634" d="M335.6,283.66a3.9,3.9,0,0,0-2.426-.681H330.45v5.474H333.2a3.627,3.627,0,0,0,2.4-.74,2.449,2.449,0,0,0,.888-1.983v-.059A2.38,2.38,0,0,0,335.6,283.66Z" transform="translate(-275.551 -271.733)" fill="#fff"/>
        <path id="Path_9635" data-name="Path 9635" d="M279.771,288.262a3.453,3.453,0,1,0,3.452,3.452A3.452,3.452,0,0,0,279.771,288.262Z" transform="translate(-242.744 -274.934)" fill="#fff"/>
        <path id="Path_9636" data-name="Path 9636" d="M257.2,287.335v-.695a2.58,2.58,0,0,1,.275-1.168l10.6-21.08H259.8a2.608,2.608,0,0,1-2.6-2.6v-6.7a2.588,2.588,0,0,1,.087-.656H207.869a16.78,16.78,0,1,0,0,33.56h49.417A2.59,2.59,0,0,1,257.2,287.335Zm-44.932-5.768h-5.741V265.884h-6.184v-5.031h18.139v5.031h-6.214Zm26.205-8.962c-1.409.5-2.325.647-2.779,1.744s.09,1.848.732,3.2l-1.972,1.972c-1.362-.647-2.1-1.187-3.192-.734h0c-1.1.46-1.248,1.37-1.75,2.782h-2.79c-.5-1.415-.647-2.324-1.742-2.778h0c-1.1-.456-1.851.09-3.2.731l-1.972-1.972c.632-1.33,1.188-2.093.731-3.2h0c-.454-1.1-1.369-1.242-2.778-1.743v-2.79c1.411-.5,2.323-.646,2.778-1.742h0c.455-1.1-.088-1.846-.731-3.2l1.972-1.972c1.359.646,2.1,1.187,3.2.731h0c1.1-.454,1.24-1.367,1.742-2.778h2.79c.5,1.418.647,2.324,1.742,2.778h0c1.1.456,1.852-.091,3.2-.731l1.972,1.972c-.645,1.357-1.186,2.1-.731,3.2h0c.453,1.094,1.353,1.235,2.778,1.742Zm16.747,1.15a8.032,8.032,0,0,1-2.811,1.421,12.661,12.661,0,0,1-3.551.474h-2.87v5.918h-5.741V260.853h8.907a11.977,11.977,0,0,1,3.536.488,7.781,7.781,0,0,1,2.707,1.421,6.263,6.263,0,0,1,1.731,2.278,7.389,7.389,0,0,1,.607,3.063v.059a7.486,7.486,0,0,1-.666,3.241A6.569,6.569,0,0,1,255.22,273.755Z" transform="translate(-191.089 -254.43)" fill="#fff"/>
      </g>
      <g id="Group_12301" data-name="Group 12301" transform="translate(68.059 0)">
        <g id="Group_12300" data-name="Group 12300">
          <g id="Group_12299" data-name="Group 12299">
            <g id="Group_12296" data-name="Group 12296">
              <g id="Group_12295" data-name="Group 12295">
                <path id="Path_9637" data-name="Path 9637" d="M453.566,240.677h-8.115a.652.652,0,0,0-.652.655v16.6l-10.52-16.944a.646.646,0,0,0-.554-.308h-8.239a25.939,25.939,0,0,0-39.184,0H364.513a.653.653,0,0,0-.655.655v6.7a.655.655,0,0,0,.655.656h11.435l-12.021,23.9a.647.647,0,0,0-.069.295v.695a.655.655,0,0,0,.655.655h21.371a25.959,25.959,0,0,0,40.019,0h7.53a.655.655,0,0,0,.655-.655V255.31L444.613,273.9a.651.651,0,0,0,.57.331h8.384a.655.655,0,0,0,.655-.655V241.332A.655.655,0,0,0,453.566,240.677ZM377.3,266.224l2.8-5.571a25.811,25.811,0,0,0,1.268,5.571H377.3Zm28.589,13.107A21.634,21.634,0,1,1,427.528,257.7,21.658,21.658,0,0,1,405.894,279.331ZM465.37,248.77v4.736h9.391a.65.65,0,0,1,.65.65V260.8a.65.65,0,0,1-.65.65H465.37v4.736h10.874a.65.65,0,0,1,.651.65v6.642a.651.651,0,0,1-.651.65H456.671a.65.65,0,0,1-.65-.65V241.475a.648.648,0,0,1,.65-.651h19.572a.651.651,0,0,1,.651.651v6.645a.651.651,0,0,1-.651.65Z" transform="translate(-363.858 -231.737)" fill="#009aff"/>
              </g>
            </g>
            <g id="Group_12298" data-name="Group 12298" transform="translate(24.729 8.654)">
              <g id="Group_12297" data-name="Group 12297">
                <path id="Path_9638" data-name="Path 9638" d="M443.94,253.7a17.307,17.307,0,1,0,17.307,17.307A17.308,17.308,0,0,0,443.94,253.7Zm0,30.287a12.98,12.98,0,1,1,12.98-12.98A12.993,12.993,0,0,1,443.94,283.991Z" transform="translate(-426.633 -253.704)" fill="#009aff"/>
              </g>
            </g>
          </g>
        </g>
      </g>
      <circle id="Ellipse_1310" data-name="Ellipse 1310" cx="6.401" cy="6.401" r="6.401" transform="translate(103.695 19.56)" fill="#009aff"/>
    </g>
    <path id="Path_9639" data-name="Path 9639" d="M453.566,240.677h-8.115a.652.652,0,0,0-.652.655v16.6l-10.52-16.944a.646.646,0,0,0-.554-.308h-8.239a25.939,25.939,0,0,0-39.184,0H364.513a.653.653,0,0,0-.655.655v6.7a.655.655,0,0,0,.655.656h11.435l-12.021,23.9a.647.647,0,0,0-.069.295v.695a.655.655,0,0,0,.655.655h21.371a25.959,25.959,0,0,0,40.019,0h7.53a.655.655,0,0,0,.655-.655V255.31L444.613,273.9a.651.651,0,0,0,.57.331h8.384a.655.655,0,0,0,.655-.655V241.332A.655.655,0,0,0,453.566,240.677ZM377.3,266.224l2.8-5.571a25.811,25.811,0,0,0,1.268,5.571H377.3Zm28.589,13.107A21.634,21.634,0,1,1,427.528,257.7,21.658,21.658,0,0,1,405.894,279.331ZM465.37,248.77v4.736h9.391a.65.65,0,0,1,.65.65V260.8a.65.65,0,0,1-.65.65H465.37v4.736h10.874a.65.65,0,0,1,.651.65v6.642a.651.651,0,0,1-.651.65H456.671a.65.65,0,0,1-.65-.65V241.475a.648.648,0,0,1,.65-.651h19.572a.651.651,0,0,1,.651.651v6.645a.651.651,0,0,1-.651.65Z" transform="translate(-104.71)" fill="#009aff"/>
  </g>
</svg>
