<svg xmlns="http://www.w3.org/2000/svg" width="130.956" height="37.546" viewBox="0 0 130.956 37.546">
  <g id="Group_12306" data-name="Group 12306" transform="translate(-191.089 -231.737)">
    <g id="Group_12302" data-name="Group 12302" transform="translate(191.089 231.737)">
      <g id="Group_12294" data-name="Group 12294" transform="translate(0 6.464)">
        <path id="Path_9634" data-name="Path 9634" d="M334.173,283.471a2.819,2.819,0,0,0-1.754-.492H330.45v3.959h1.99a2.623,2.623,0,0,0,1.733-.535,1.771,1.771,0,0,0,.642-1.434v-.043A1.721,1.721,0,0,0,334.173,283.471Z" transform="translate(-290.751 -274.846)" fill="#062c4c"/>
        <path id="Path_9635" data-name="Path 9635" d="M278.815,288.262a2.5,2.5,0,1,0,2.5,2.5A2.5,2.5,0,0,0,278.815,288.262Z" transform="translate(-252.04 -278.624)" fill="#062c4c"/>
        <path id="Path_9636" data-name="Path 9636" d="M238.9,278.224v-.5a1.866,1.866,0,0,1,.2-.844l7.667-15.244h-5.982a1.886,1.886,0,0,1-1.884-1.884V254.9a1.872,1.872,0,0,1,.063-.474H203.223a12.134,12.134,0,1,0,0,24.268h35.735A1.873,1.873,0,0,1,238.9,278.224ZM206.4,274.053h-4.151V262.712H197.78v-3.638H210.9v3.638H206.4Zm18.95-6.481c-1.019.363-1.682.468-2.009,1.261s.065,1.337.529,2.313l-1.426,1.426c-.985-.468-1.521-.858-2.308-.531h0c-.8.332-.9.99-1.265,2.011h-2.017c-.364-1.023-.468-1.68-1.26-2.009h0c-.794-.33-1.338.065-2.313.528l-1.426-1.426c.457-.962.859-1.513.528-2.314h0c-.328-.793-.99-.9-2.009-1.26v-2.017c1.021-.363,1.68-.467,2.009-1.26h0c.329-.794-.064-1.335-.528-2.314l1.426-1.426c.983.467,1.52.858,2.313.529h0c.792-.328.9-.988,1.26-2.009h2.017c.365,1.025.468,1.681,1.26,2.009h0c.8.33,1.339-.065,2.314-.529l1.426,1.426c-.466.981-.857,1.52-.528,2.313h0c.328.791.978.893,2.009,1.26Zm12.11.832a5.809,5.809,0,0,1-2.033,1.027,9.156,9.156,0,0,1-2.568.342h-2.076v4.28h-4.151V259.075h6.441a8.661,8.661,0,0,1,2.557.353,5.626,5.626,0,0,1,1.958,1.027,4.528,4.528,0,0,1,1.252,1.647,5.343,5.343,0,0,1,.439,2.215v.043a5.413,5.413,0,0,1-.481,2.343A4.75,4.75,0,0,1,237.464,268.4Z" transform="translate(-191.089 -254.43)" fill="#062c4c"/>
      </g>
      <g id="Group_12301" data-name="Group 12301" transform="translate(49.216 0)">
        <g id="Group_12300" data-name="Group 12300">
          <g id="Group_12299" data-name="Group 12299">
            <g id="Group_12296" data-name="Group 12296">
              <g id="Group_12295" data-name="Group 12295">
                <path id="Path_9637" data-name="Path 9637" d="M428.729,238.2h-5.868a.472.472,0,0,0-.471.474v12l-7.608-12.253a.467.467,0,0,0-.4-.223h-5.958a18.757,18.757,0,0,0-28.335,0H364.332a.472.472,0,0,0-.474.474v4.846a.474.474,0,0,0,.474.474H372.6l-8.693,17.284a.468.468,0,0,0-.05.213v.5a.474.474,0,0,0,.474.474h15.454a18.771,18.771,0,0,0,28.939,0h5.445a.474.474,0,0,0,.474-.474V248.783l7.61,13.445a.47.47,0,0,0,.412.239h6.062a.474.474,0,0,0,.474-.474V238.675A.474.474,0,0,0,428.729,238.2Zm-55.147,18.474,2.026-4.028a18.664,18.664,0,0,0,.917,4.028h-2.942Zm20.674,9.478A15.644,15.644,0,1,1,409.9,250.51,15.662,15.662,0,0,1,394.256,266.154Zm43.008-22.1v3.425h6.791a.47.47,0,0,1,.47.47v4.806a.47.47,0,0,1-.47.47h-6.791v3.425h7.863a.47.47,0,0,1,.471.47v4.8a.471.471,0,0,1-.471.47H430.974a.47.47,0,0,1-.47-.47V238.779a.469.469,0,0,1,.47-.471h14.153a.471.471,0,0,1,.471.471v4.805a.471.471,0,0,1-.471.47Z" transform="translate(-363.858 -231.737)" fill="#009aff"/>
              </g>
            </g>
            <g id="Group_12298" data-name="Group 12298" transform="translate(17.882 6.258)">
              <g id="Group_12297" data-name="Group 12297">
                <path id="Path_9638" data-name="Path 9638" d="M439.148,253.7a12.515,12.515,0,1,0,12.515,12.515A12.516,12.516,0,0,0,439.148,253.7Zm0,21.9a9.386,9.386,0,1,1,9.387-9.386A9.4,9.4,0,0,1,439.148,275.606Z" transform="translate(-426.633 -253.704)" fill="#009aff"/>
              </g>
            </g>
          </g>
        </g>
      </g>
      <circle id="Ellipse_1310" data-name="Ellipse 1310" cx="4.629" cy="4.629" r="4.629" transform="translate(74.985 14.144)" fill="#009aff"/>
    </g>
    <path id="Path_9639" data-name="Path 9639" d="M428.729,238.2h-5.868a.472.472,0,0,0-.471.474v12l-7.608-12.253a.467.467,0,0,0-.4-.223h-5.958a18.757,18.757,0,0,0-28.335,0H364.332a.472.472,0,0,0-.474.474v4.846a.474.474,0,0,0,.474.474H372.6l-8.693,17.284a.468.468,0,0,0-.05.213v.5a.474.474,0,0,0,.474.474h15.454a18.771,18.771,0,0,0,28.939,0h5.445a.474.474,0,0,0,.474-.474V248.783l7.61,13.445a.47.47,0,0,0,.412.239h6.062a.474.474,0,0,0,.474-.474V238.675A.474.474,0,0,0,428.729,238.2Zm-55.147,18.474,2.026-4.028a18.664,18.664,0,0,0,.917,4.028h-2.942Zm20.674,9.478A15.644,15.644,0,1,1,409.9,250.51,15.662,15.662,0,0,1,394.256,266.154Zm43.008-22.1v3.425h6.791a.47.47,0,0,1,.47.47v4.806a.47.47,0,0,1-.47.47h-6.791v3.425h7.863a.47.47,0,0,1,.471.47v4.8a.471.471,0,0,1-.471.47H430.974a.47.47,0,0,1-.47-.47V238.779a.469.469,0,0,1,.47-.471h14.153a.471.471,0,0,1,.471.471v4.805a.471.471,0,0,1-.471.47Z" transform="translate(-123.553)" fill="#009aff"/>
  </g>
</svg>
